<?xml version="1.0" encoding="utf-8" standalone="no"?>
<!DOCTYPE svg PUBLIC "-//W3C//DTD SVG 1.1//EN"
  "http://www.w3.org/Graphics/SVG/1.1/DTD/svg11.dtd">
<svg xmlns:xlink="http://www.w3.org/1999/xlink" width="724.633125pt" height="245.496139pt" viewBox="0 0 724.633125 245.496139" xmlns="http://www.w3.org/2000/svg" version="1.1">
 <metadata>
  <rdf:RDF xmlns:dc="http://purl.org/dc/elements/1.1/" xmlns:cc="http://creativecommons.org/ns#" xmlns:rdf="http://www.w3.org/1999/02/22-rdf-syntax-ns#">
   <cc:Work>
    <dc:type rdf:resource="http://purl.org/dc/dcmitype/StillImage"/>
    <dc:date>2026-01-12T17:26:22.751021</dc:date>
    <dc:format>image/svg+xml</dc:format>
    <dc:creator>
     <cc:Agent>
      <dc:title>Matplotlib v3.9.4, https://matplotlib.org/</dc:title>
     </cc:Agent>
    </dc:creator>
   </cc:Work>
  </rdf:RDF>
 </metadata>
 <defs>
  <style type="text/css">*{stroke-linejoin: round; stroke-linecap: butt}</style>
 </defs>
 <g id="figure_1">
  <g id="patch_1">
   <path d="M 0 245.496139 
L 724.633125 245.496139 
L 724.633125 0 
L 0 0 
L 0 245.496139 
z
" style="fill: none"/>
  </g>
  <g id="axes_1">
   <g id="patch_2">
    <path d="M 47.833125 206.889577 
L 239.147411 206.889577 
L 239.147411 40.569577 
L 47.833125 40.569577 
L 47.833125 206.889577 
z
" style="fill: none"/>
   </g>
   <g id="matplotlib.axis_1">
    <g id="xtick_1">
     <g id="line2d_1">
      <defs>
       <path id="m84e9285feb" d="M 0 0 
L 0 3.5 
" style="stroke: #000000; stroke-width: 0.8"/>
      </defs>
      <g>
       <use xlink:href="#m84e9285feb" x="95.661696" y="206.889577" style="stroke: #000000; stroke-width: 0.8"/>
      </g>
     </g>
     <g id="text_1">
      <text style="font: 10px 'Arial'; text-anchor: middle" x="95.661696" y="221.047389" transform="rotate(-0 95.661696 221.047389)">PLP</text>
     </g>
    </g>
    <g id="xtick_2">
     <g id="line2d_2">
      <g>
       <use xlink:href="#m84e9285feb" x="191.318839" y="206.889577" style="stroke: #000000; stroke-width: 0.8"/>
      </g>
     </g>
     <g id="text_2">
      <text style="font: 10px 'Arial'; text-anchor: middle" x="191.318839" y="221.047389" transform="rotate(-0 191.318839 221.047389)">BLB</text>
     </g>
    </g>
   </g>
   <g id="matplotlib.axis_2">
    <g id="ytick_1">
     <g id="line2d_3">
      <defs>
       <path id="m4be5557142" d="M 0 0 
L -3.5 0 
" style="stroke: #000000; stroke-width: 0.8"/>
      </defs>
      <g>
       <use xlink:href="#m4be5557142" x="47.833125" y="184.217272" style="stroke: #000000; stroke-width: 0.8"/>
      </g>
     </g>
     <g id="text_3">
      <text style="font: 11px 'Arial'; text-anchor: end" x="40.833125" y="188.154069" transform="rotate(-0 40.833125 188.154069)">−15</text>
     </g>
    </g>
    <g id="ytick_2">
     <g id="line2d_4">
      <g>
       <use xlink:href="#m4be5557142" x="47.833125" y="155.169892" style="stroke: #000000; stroke-width: 0.8"/>
      </g>
     </g>
     <g id="text_4">
      <text style="font: 11px 'Arial'; text-anchor: end" x="40.833125" y="159.106689" transform="rotate(-0 40.833125 159.106689)">−10</text>
     </g>
    </g>
    <g id="ytick_3">
     <g id="line2d_5">
      <g>
       <use xlink:href="#m4be5557142" x="47.833125" y="126.122512" style="stroke: #000000; stroke-width: 0.8"/>
      </g>
     </g>
     <g id="text_5">
      <text style="font: 11px 'Arial'; text-anchor: end" x="40.833125" y="130.059309" transform="rotate(-0 40.833125 130.059309)">−5</text>
     </g>
    </g>
    <g id="ytick_4">
     <g id="line2d_6">
      <g>
       <use xlink:href="#m4be5557142" x="47.833125" y="97.075132" style="stroke: #000000; stroke-width: 0.8"/>
      </g>
     </g>
     <g id="text_6">
      <text style="font: 11px 'Arial'; text-anchor: end" x="40.833125" y="101.011928" transform="rotate(-0 40.833125 101.011928)">0</text>
     </g>
    </g>
    <g id="ytick_5">
     <g id="line2d_7">
      <g>
       <use xlink:href="#m4be5557142" x="47.833125" y="68.027751" style="stroke: #000000; stroke-width: 0.8"/>
      </g>
     </g>
     <g id="text_7">
      <text style="font: 11px 'Arial'; text-anchor: end" x="40.833125" y="71.964548" transform="rotate(-0 40.833125 71.964548)">5</text>
     </g>
    </g>
    <g id="text_8">
     <text style="font: 12px 'Arial'; text-anchor: middle" x="15.789375" y="123.729577" transform="rotate(-90 15.789375 123.729577)">Abundance Score</text>
    </g>
   </g>
   <g id="patch_3">
    <path d="M 162.621696 101.220004 
L 220.015982 101.220004 
L 220.015982 99.146986 
L 205.667411 97.889146 
L 220.015982 96.631307 
L 220.015982 94.46921 
L 162.621696 94.46921 
L 162.621696 96.631307 
L 176.970268 97.889146 
L 162.621696 99.146986 
L 162.621696 101.220004 
z
" clip-path="url(#p17e9decb85)" style="fill: #2f7499; stroke: #303030; stroke-linejoin: miter"/>
   </g>
   <g id="line2d_8">
    <path d="M 191.318839 101.220004 
L 191.318839 108.517398 
" clip-path="url(#p17e9decb85)" style="fill: none; stroke: #303030"/>
   </g>
   <g id="line2d_9">
    <path d="M 191.318839 94.46921 
L 191.318839 87.75186 
" clip-path="url(#p17e9decb85)" style="fill: none; stroke: #303030"/>
   </g>
   <g id="line2d_10">
    <path d="M 176.970268 108.517398 
L 205.667411 108.517398 
" clip-path="url(#p17e9decb85)" style="fill: none; stroke: #303030; stroke-linecap: square"/>
   </g>
   <g id="line2d_11">
    <path d="M 176.970268 87.75186 
L 205.667411 87.75186 
" clip-path="url(#p17e9decb85)" style="fill: none; stroke: #303030; stroke-linecap: square"/>
   </g>
   <g id="line2d_12">
    <defs>
     <path id="m3fc3877648" d="M 0 3 
C 0.795609 3 1.55874 2.683901 2.12132 2.12132 
C 2.683901 1.55874 3 0.795609 3 0 
C 3 -0.795609 2.683901 -1.55874 2.12132 -2.12132 
C 1.55874 -2.683901 0.795609 -3 0 -3 
C -0.795609 -3 -1.55874 -2.683901 -2.12132 -2.12132 
C -2.683901 -1.55874 -3 -0.795609 -3 0 
C -3 0.795609 -2.683901 1.55874 -2.12132 2.12132 
C -1.55874 2.683901 -0.795609 3 0 3 
z
" style="stroke: #303030"/>
    </defs>
    <g clip-path="url(#p17e9decb85)">
     <use xlink:href="#m3fc3877648" x="191.318839" y="121.062123" style="fill-opacity: 0; stroke: #303030"/>
     <use xlink:href="#m3fc3877648" x="191.318839" y="115.32485" style="fill-opacity: 0; stroke: #303030"/>
     <use xlink:href="#m3fc3877648" x="191.318839" y="111.648646" style="fill-opacity: 0; stroke: #303030"/>
     <use xlink:href="#m3fc3877648" x="191.318839" y="117.063403" style="fill-opacity: 0; stroke: #303030"/>
     <use xlink:href="#m3fc3877648" x="191.318839" y="111.782937" style="fill-opacity: 0; stroke: #303030"/>
     <use xlink:href="#m3fc3877648" x="191.318839" y="118.95927" style="fill-opacity: 0; stroke: #303030"/>
    </g>
   </g>
   <g id="patch_4">
    <path d="M 66.964554 123.501836 
L 124.358839 123.501836 
L 124.358839 106.527836 
L 110.010268 104.34077 
L 124.358839 102.153704 
L 124.358839 97.070844 
L 66.964554 97.070844 
L 66.964554 102.153704 
L 81.313125 104.34077 
L 66.964554 106.527836 
L 66.964554 123.501836 
z
" clip-path="url(#p17e9decb85)" style="fill: #c08089; stroke: #303030; stroke-linejoin: miter"/>
   </g>
   <g id="line2d_13">
    <path d="M 95.661696 123.501836 
L 95.661696 160.037836 
" clip-path="url(#p17e9decb85)" style="fill: none; stroke: #303030"/>
   </g>
   <g id="line2d_14">
    <path d="M 95.661696 97.070844 
L 95.661696 72.697898 
" clip-path="url(#p17e9decb85)" style="fill: none; stroke: #303030"/>
   </g>
   <g id="line2d_15">
    <path d="M 81.313125 160.037836 
L 110.010268 160.037836 
" clip-path="url(#p17e9decb85)" style="fill: none; stroke: #303030; stroke-linecap: square"/>
   </g>
   <g id="line2d_16">
    <path d="M 81.313125 72.697898 
L 110.010268 72.697898 
" clip-path="url(#p17e9decb85)" style="fill: none; stroke: #303030; stroke-linecap: square"/>
   </g>
   <g id="line2d_17">
    <g clip-path="url(#p17e9decb85)">
     <use xlink:href="#m3fc3877648" x="95.661696" y="179.818375" style="fill-opacity: 0; stroke: #303030"/>
     <use xlink:href="#m3fc3877648" x="95.661696" y="200.499497" style="fill-opacity: 0; stroke: #303030"/>
     <use xlink:href="#m3fc3877648" x="95.661696" y="183.264445" style="fill-opacity: 0; stroke: #303030"/>
     <use xlink:href="#m3fc3877648" x="95.661696" y="174.193388" style="fill-opacity: 0; stroke: #303030"/>
     <use xlink:href="#m3fc3877648" x="95.661696" y="166.593697" style="fill-opacity: 0; stroke: #303030"/>
    </g>
   </g>
   <g id="line2d_18">
    <path d="M 95.661696 65.66881 
L 95.661696 62.857175 
L 191.318839 62.857175 
L 191.318839 65.66881 
" style="fill: none; stroke: #333333; stroke-width: 1.5; stroke-linecap: square"/>
   </g>
   <g id="line2d_19">
    <path d="M 176.970268 97.889146 
L 205.667411 97.889146 
" clip-path="url(#p17e9decb85)" style="fill: none; stroke: #303030"/>
   </g>
   <g id="line2d_20">
    <path d="M 81.313125 104.34077 
L 110.010268 104.34077 
" clip-path="url(#p17e9decb85)" style="fill: none; stroke: #303030"/>
   </g>
   <g id="patch_5">
    <path d="M 47.833125 206.889577 
L 47.833125 40.569577 
" style="fill: none; stroke: #000000; stroke-width: 0.8; stroke-linejoin: miter; stroke-linecap: square"/>
   </g>
   <g id="patch_6">
    <path d="M 47.833125 206.889577 
L 239.147411 206.889577 
" style="fill: none; stroke: #000000; stroke-width: 0.8; stroke-linejoin: miter; stroke-linecap: square"/>
   </g>
   <g id="text_9">
    <!-- p=6.2×10$^{-8}$ -->
    <g transform="translate(111.690268 52.457175)">
     <text>
      <tspan style="font: 12px 'Arial'" x="0 6.673828 13.681641 20.355469 23.689453 30.363281 37.371094 44.044922" y="-0.171875">p=6.2×10</tspan>
      <tspan style="font: 8.4px 'DejaVu Sans'" x="50.833594 57.871875" y="-4.765625">−8</tspan>
     </text>
    </g>
   </g>
  </g>
  <g id="axes_2">
   <g id="patch_7">
    <path d="M 286.975982 206.889577 
L 478.290268 206.889577 
L 478.290268 40.569577 
L 286.975982 40.569577 
L 286.975982 206.889577 
z
" style="fill: none"/>
   </g>
   <g id="matplotlib.axis_3">
    <g id="xtick_3">
     <g id="line2d_21">
      <g>
       <use xlink:href="#m84e9285feb" x="334.804554" y="206.889577" style="stroke: #000000; stroke-width: 0.8"/>
      </g>
     </g>
     <g id="text_10">
      <text style="font: 10px 'Arial'; text-anchor: middle" x="334.804554" y="221.047389" transform="rotate(-0 334.804554 221.047389)">PLP</text>
     </g>
    </g>
    <g id="xtick_4">
     <g id="line2d_22">
      <g>
       <use xlink:href="#m84e9285feb" x="430.461696" y="206.889577" style="stroke: #000000; stroke-width: 0.8"/>
      </g>
     </g>
     <g id="text_11">
      <text style="font: 10px 'Arial'; text-anchor: middle" x="430.461696" y="221.047389" transform="rotate(-0 430.461696 221.047389)">BLB</text>
     </g>
    </g>
    <g id="text_12">
     <text style="font: 12px 'Arial'; text-anchor: middle" x="382.633125" y="235.770514" transform="rotate(-0 382.633125 235.770514)">Clinical Significance</text>
    </g>
   </g>
   <g id="matplotlib.axis_4">
    <g id="ytick_6">
     <g id="line2d_23">
      <g>
       <use xlink:href="#m4be5557142" x="286.975982" y="206.889577" style="stroke: #000000; stroke-width: 0.8"/>
      </g>
     </g>
     <g id="text_13">
      <text style="font: 11px 'Arial'; text-anchor: end" x="279.975982" y="210.826374" transform="rotate(-0 279.975982 210.826374)">0.0</text>
     </g>
    </g>
    <g id="ytick_7">
     <g id="line2d_24">
      <g>
       <use xlink:href="#m4be5557142" x="286.975982" y="173.625577" style="stroke: #000000; stroke-width: 0.8"/>
      </g>
     </g>
     <g id="text_14">
      <text style="font: 11px 'Arial'; text-anchor: end" x="279.975982" y="177.562374" transform="rotate(-0 279.975982 177.562374)">0.2</text>
     </g>
    </g>
    <g id="ytick_8">
     <g id="line2d_25">
      <g>
       <use xlink:href="#m4be5557142" x="286.975982" y="140.361577" style="stroke: #000000; stroke-width: 0.8"/>
      </g>
     </g>
     <g id="text_15">
      <text style="font: 11px 'Arial'; text-anchor: end" x="279.975982" y="144.298374" transform="rotate(-0 279.975982 144.298374)">0.4</text>
     </g>
    </g>
    <g id="ytick_9">
     <g id="line2d_26">
      <g>
       <use xlink:href="#m4be5557142" x="286.975982" y="107.097577" style="stroke: #000000; stroke-width: 0.8"/>
      </g>
     </g>
     <g id="text_16">
      <text style="font: 11px 'Arial'; text-anchor: end" x="279.975982" y="111.034374" transform="rotate(-0 279.975982 111.034374)">0.6</text>
     </g>
    </g>
    <g id="ytick_10">
     <g id="line2d_27">
      <g>
       <use xlink:href="#m4be5557142" x="286.975982" y="73.833577" style="stroke: #000000; stroke-width: 0.8"/>
      </g>
     </g>
     <g id="text_17">
      <text style="font: 11px 'Arial'; text-anchor: end" x="279.975982" y="77.770374" transform="rotate(-0 279.975982 77.770374)">0.8</text>
     </g>
    </g>
    <g id="ytick_11">
     <g id="line2d_28">
      <g>
       <use xlink:href="#m4be5557142" x="286.975982" y="40.569577" style="stroke: #000000; stroke-width: 0.8"/>
      </g>
     </g>
     <g id="text_18">
      <text style="font: 11px 'Arial'; text-anchor: end" x="279.975982" y="44.506374" transform="rotate(-0 279.975982 44.506374)">1.0</text>
     </g>
    </g>
    <g id="text_19">
     <text style="font: 12px 'Arial'; text-anchor: middle" x="258.300982" y="123.729577" transform="rotate(-90 258.300982 123.729577)">PPI Perturbation Score</text>
    </g>
   </g>
   <g id="patch_8">
    <path d="M 306.107411 179.821154 
L 363.501696 179.821154 
L 363.501696 165.266557 
L 349.153125 159.926555 
L 363.501696 154.586554 
L 363.501696 126.042277 
L 306.107411 126.042277 
L 306.107411 154.586554 
L 320.455982 159.926555 
L 306.107411 165.266557 
L 306.107411 179.821154 
z
" clip-path="url(#p3982bf7960)" style="fill: #c08089; stroke: #303030; stroke-linejoin: miter"/>
   </g>
   <g id="line2d_29">
    <path d="M 334.804554 179.821154 
L 334.804554 206.783315 
" clip-path="url(#p3982bf7960)" style="fill: none; stroke: #303030"/>
   </g>
   <g id="line2d_30">
    <path d="M 334.804554 126.042277 
L 334.804554 72.39025 
" clip-path="url(#p3982bf7960)" style="fill: none; stroke: #303030"/>
   </g>
   <g id="line2d_31">
    <path d="M 320.455982 206.783315 
L 349.153125 206.783315 
" clip-path="url(#p3982bf7960)" style="fill: none; stroke: #303030; stroke-linecap: square"/>
   </g>
   <g id="line2d_32">
    <path d="M 320.455982 72.39025 
L 349.153125 72.39025 
" clip-path="url(#p3982bf7960)" style="fill: none; stroke: #303030; stroke-linecap: square"/>
   </g>
   <g id="line2d_33"/>
   <g id="patch_9">
    <path d="M 401.764554 183.509719 
L 459.158839 183.509719 
L 459.158839 176.261447 
L 444.810268 167.281609 
L 459.158839 158.301771 
L 459.158839 151.6641 
L 401.764554 151.6641 
L 401.764554 158.301771 
L 416.113125 167.281609 
L 401.764554 176.261447 
L 401.764554 183.509719 
z
" clip-path="url(#p3982bf7960)" style="fill: #2f7499; stroke: #303030; stroke-linejoin: miter"/>
   </g>
   <g id="line2d_34">
    <path d="M 430.461696 183.509719 
L 430.461696 204.063478 
" clip-path="url(#p3982bf7960)" style="fill: none; stroke: #303030"/>
   </g>
   <g id="line2d_35">
    <path d="M 430.461696 151.6641 
L 430.461696 122.941147 
" clip-path="url(#p3982bf7960)" style="fill: none; stroke: #303030"/>
   </g>
   <g id="line2d_36">
    <path d="M 416.113125 204.063478 
L 444.810268 204.063478 
" clip-path="url(#p3982bf7960)" style="fill: none; stroke: #303030; stroke-linecap: square"/>
   </g>
   <g id="line2d_37">
    <path d="M 416.113125 122.941147 
L 444.810268 122.941147 
" clip-path="url(#p3982bf7960)" style="fill: none; stroke: #303030; stroke-linecap: square"/>
   </g>
   <g id="line2d_38">
    <g clip-path="url(#p3982bf7960)">
     <use xlink:href="#m3fc3877648" x="430.461696" y="103.614002" style="fill-opacity: 0; stroke: #303030"/>
    </g>
   </g>
   <g id="line2d_39">
    <path d="M 334.804554 64.998632 
L 334.804554 62.041984 
L 430.461696 62.041984 
L 430.461696 64.998632 
" style="fill: none; stroke: #333333; stroke-width: 1.5; stroke-linecap: square"/>
   </g>
   <g id="line2d_40">
    <path d="M 320.455982 159.926555 
L 349.153125 159.926555 
" clip-path="url(#p3982bf7960)" style="fill: none; stroke: #303030"/>
   </g>
   <g id="line2d_41">
    <path d="M 416.113125 167.281609 
L 444.810268 167.281609 
" clip-path="url(#p3982bf7960)" style="fill: none; stroke: #303030"/>
   </g>
   <g id="patch_10">
    <path d="M 286.975982 206.889577 
L 286.975982 40.569577 
" style="fill: none; stroke: #000000; stroke-width: 0.8; stroke-linejoin: miter; stroke-linecap: square"/>
   </g>
   <g id="patch_11">
    <path d="M 286.975982 206.889577 
L 478.290268 206.889577 
" style="fill: none; stroke: #000000; stroke-width: 0.8; stroke-linejoin: miter; stroke-linecap: square"/>
   </g>
   <g id="text_20">
    <text style="font: 12px 'Arial'; text-anchor: middle" x="382.633125" y="51.656984" transform="rotate(-0 382.633125 51.656984)">p=0.03</text>
   </g>
  </g>
  <g id="axes_3">
   <g id="patch_12">
    <path d="M 526.118839 206.889577 
L 717.433125 206.889577 
L 717.433125 40.569577 
L 526.118839 40.569577 
L 526.118839 206.889577 
z
" style="fill: none"/>
   </g>
   <g id="matplotlib.axis_5">
    <g id="xtick_5">
     <g id="line2d_42">
      <g>
       <use xlink:href="#m84e9285feb" x="573.947411" y="206.889577" style="stroke: #000000; stroke-width: 0.8"/>
      </g>
     </g>
     <g id="text_21">
      <text style="font: 10px 'Arial'; text-anchor: middle" x="573.947411" y="221.047389" transform="rotate(-0 573.947411 221.047389)">PLP</text>
     </g>
    </g>
    <g id="xtick_6">
     <g id="line2d_43">
      <g>
       <use xlink:href="#m84e9285feb" x="669.604554" y="206.889577" style="stroke: #000000; stroke-width: 0.8"/>
      </g>
     </g>
     <g id="text_22">
      <text style="font: 10px 'Arial'; text-anchor: middle" x="669.604554" y="221.047389" transform="rotate(-0 669.604554 221.047389)">BLB</text>
     </g>
    </g>
   </g>
   <g id="matplotlib.axis_6">
    <g id="ytick_12">
     <g id="line2d_44">
      <g>
       <use xlink:href="#m4be5557142" x="526.118839" y="199.272986" style="stroke: #000000; stroke-width: 0.8"/>
      </g>
     </g>
     <g id="text_23">
      <text style="font: 11px 'Arial'; text-anchor: end" x="519.118839" y="203.209783" transform="rotate(-0 519.118839 203.209783)">0.5</text>
     </g>
    </g>
    <g id="ytick_13">
     <g id="line2d_45">
      <g>
       <use xlink:href="#m4be5557142" x="526.118839" y="167.532304" style="stroke: #000000; stroke-width: 0.8"/>
      </g>
     </g>
     <g id="text_24">
      <text style="font: 11px 'Arial'; text-anchor: end" x="519.118839" y="171.469101" transform="rotate(-0 519.118839 171.469101)">0.6</text>
     </g>
    </g>
    <g id="ytick_14">
     <g id="line2d_46">
      <g>
       <use xlink:href="#m4be5557142" x="526.118839" y="135.791622" style="stroke: #000000; stroke-width: 0.8"/>
      </g>
     </g>
     <g id="text_25">
      <text style="font: 11px 'Arial'; text-anchor: end" x="519.118839" y="139.728419" transform="rotate(-0 519.118839 139.728419)">0.7</text>
     </g>
    </g>
    <g id="ytick_15">
     <g id="line2d_47">
      <g>
       <use xlink:href="#m4be5557142" x="526.118839" y="104.05094" style="stroke: #000000; stroke-width: 0.8"/>
      </g>
     </g>
     <g id="text_26">
      <text style="font: 11px 'Arial'; text-anchor: end" x="519.118839" y="107.987737" transform="rotate(-0 519.118839 107.987737)">0.8</text>
     </g>
    </g>
    <g id="ytick_16">
     <g id="line2d_48">
      <g>
       <use xlink:href="#m4be5557142" x="526.118839" y="72.310259" style="stroke: #000000; stroke-width: 0.8"/>
      </g>
     </g>
     <g id="text_27">
      <text style="font: 11px 'Arial'; text-anchor: end" x="519.118839" y="76.247055" transform="rotate(-0 519.118839 76.247055)">0.9</text>
     </g>
    </g>
    <g id="ytick_17">
     <g id="line2d_49">
      <g>
       <use xlink:href="#m4be5557142" x="526.118839" y="40.569577" style="stroke: #000000; stroke-width: 0.8"/>
      </g>
     </g>
     <g id="text_28">
      <text style="font: 11px 'Arial'; text-anchor: end" x="519.118839" y="44.506374" transform="rotate(-0 519.118839 44.506374)">1.0</text>
     </g>
    </g>
    <g id="text_29">
     <text style="font: 12px 'Arial'; text-anchor: middle" x="497.303214" y="123.729577" transform="rotate(-90 497.303214 123.729577)">Imaging Phenotype Score</text>
    </g>
   </g>
   <g id="patch_13">
    <path d="M 545.250268 124.27042 
L 602.644554 124.27042 
L 602.644554 98.37535 
L 588.295982 93.671429 
L 602.644554 88.967509 
L 602.644554 65.558546 
L 545.250268 65.558546 
L 545.250268 88.967509 
L 559.598839 93.671429 
L 545.250268 98.37535 
L 545.250268 124.27042 
z
" clip-path="url(#pc4bb5322ca)" style="fill: #c08089; stroke: #303030; stroke-linejoin: miter"/>
   </g>
   <g id="line2d_50">
    <path d="M 573.947411 124.27042 
L 573.947411 190.823311 
" clip-path="url(#pc4bb5322ca)" style="fill: none; stroke: #303030"/>
   </g>
   <g id="line2d_51">
    <path d="M 573.947411 65.558546 
L 573.947411 40.706741 
" clip-path="url(#pc4bb5322ca)" style="fill: none; stroke: #303030"/>
   </g>
   <g id="line2d_52">
    <path d="M 559.598839 190.823311 
L 588.295982 190.823311 
" clip-path="url(#pc4bb5322ca)" style="fill: none; stroke: #303030; stroke-linecap: square"/>
   </g>
   <g id="line2d_53">
    <path d="M 559.598839 40.706741 
L 588.295982 40.706741 
" clip-path="url(#pc4bb5322ca)" style="fill: none; stroke: #303030; stroke-linecap: square"/>
   </g>
   <g id="line2d_54"/>
   <g id="patch_14">
    <path d="M 640.907411 159.335649 
L 698.301696 159.335649 
L 698.301696 147.746908 
L 683.953125 137.364791 
L 698.301696 126.982673 
L 698.301696 86.895904 
L 640.907411 86.895904 
L 640.907411 126.982673 
L 655.255982 137.364791 
L 640.907411 147.746908 
L 640.907411 159.335649 
z
" clip-path="url(#pc4bb5322ca)" style="fill: #2f7499; stroke: #303030; stroke-linejoin: miter"/>
   </g>
   <g id="line2d_55">
    <path d="M 669.604554 159.335649 
L 669.604554 198.976108 
" clip-path="url(#pc4bb5322ca)" style="fill: none; stroke: #303030"/>
   </g>
   <g id="line2d_56">
    <path d="M 669.604554 86.895904 
L 669.604554 41.527548 
" clip-path="url(#pc4bb5322ca)" style="fill: none; stroke: #303030"/>
   </g>
   <g id="line2d_57">
    <path d="M 655.255982 198.976108 
L 683.953125 198.976108 
" clip-path="url(#pc4bb5322ca)" style="fill: none; stroke: #303030; stroke-linecap: square"/>
   </g>
   <g id="line2d_58">
    <path d="M 655.255982 41.527548 
L 683.953125 41.527548 
" clip-path="url(#pc4bb5322ca)" style="fill: none; stroke: #303030; stroke-linecap: square"/>
   </g>
   <g id="line2d_59"/>
   <g id="line2d_60">
    <path d="M 573.947411 32.001926 
L 573.947411 28.52 
L 669.604554 28.52 
L 669.604554 32.001926 
" style="fill: none; stroke: #333333; stroke-width: 1.5; stroke-linecap: square"/>
   </g>
   <g id="line2d_61">
    <path d="M 559.598839 93.671429 
L 588.295982 93.671429 
" clip-path="url(#pc4bb5322ca)" style="fill: none; stroke: #303030"/>
   </g>
   <g id="line2d_62">
    <path d="M 655.255982 137.364791 
L 683.953125 137.364791 
" clip-path="url(#pc4bb5322ca)" style="fill: none; stroke: #303030"/>
   </g>
   <g id="patch_15">
    <path d="M 526.118839 206.889577 
L 526.118839 40.569577 
" style="fill: none; stroke: #000000; stroke-width: 0.8; stroke-linejoin: miter; stroke-linecap: square"/>
   </g>
   <g id="patch_16">
    <path d="M 526.118839 206.889577 
L 717.433125 206.889577 
" style="fill: none; stroke: #000000; stroke-width: 0.8; stroke-linejoin: miter; stroke-linecap: square"/>
   </g>
   <g id="text_30">
    <!-- p=1.8×10$^{-10}$ -->
    <g transform="translate(587.275982 18.12)">
     <text>
      <tspan style="font: 12px 'Arial'" x="0 6.673828 13.681641 20.355469 23.689453 30.363281 37.371094 44.044922" y="-0.171875">p=1.8×10</tspan>
      <tspan style="font: 8.4px 'DejaVu Sans'" x="50.833594 57.871875 63.216211" y="-4.765625">−10</tspan>
     </text>
    </g>
   </g>
  </g>
 </g>
 <defs>
  <clipPath id="p17e9decb85">
   <rect x="47.833125" y="40.569577" width="191.314286" height="166.32"/>
  </clipPath>
  <clipPath id="p3982bf7960">
   <rect x="286.975982" y="40.569577" width="191.314286" height="166.32"/>
  </clipPath>
  <clipPath id="pc4bb5322ca">
   <rect x="526.118839" y="40.569577" width="191.314286" height="166.32"/>
  </clipPath>
 </defs>
</svg>
