<?xml version="1.0" encoding="utf-8" standalone="no"?>
<!DOCTYPE svg PUBLIC "-//W3C//DTD SVG 1.1//EN"
  "http://www.w3.org/Graphics/SVG/1.1/DTD/svg11.dtd">
<svg xmlns:xlink="http://www.w3.org/1999/xlink" width="724.633125pt" height="245.496139pt" viewBox="0 0 724.633125 245.496139" xmlns="http://www.w3.org/2000/svg" version="1.1">
 <metadata>
  <rdf:RDF xmlns:dc="http://purl.org/dc/elements/1.1/" xmlns:cc="http://creativecommons.org/ns#" xmlns:rdf="http://www.w3.org/1999/02/22-rdf-syntax-ns#">
   <cc:Work>
    <dc:type rdf:resource="http://purl.org/dc/dcmitype/StillImage"/>
    <dc:date>2026-01-12T17:26:23.431008</dc:date>
    <dc:format>image/svg+xml</dc:format>
    <dc:creator>
     <cc:Agent>
      <dc:title>Matplotlib v3.9.4, https://matplotlib.org/</dc:title>
     </cc:Agent>
    </dc:creator>
   </cc:Work>
  </rdf:RDF>
 </metadata>
 <defs>
  <style type="text/css">*{stroke-linejoin: round; stroke-linecap: butt}</style>
 </defs>
 <g id="figure_1">
  <g id="patch_1">
   <path d="M 0 245.496139 
L 724.633125 245.496139 
L 724.633125 0 
L 0 0 
L 0 245.496139 
z
" style="fill: none"/>
  </g>
  <g id="axes_1">
   <g id="patch_2">
    <path d="M 47.833125 206.889577 
L 239.147411 206.889577 
L 239.147411 40.569577 
L 47.833125 40.569577 
L 47.833125 206.889577 
z
" style="fill: none"/>
   </g>
   <g id="PolyCollection_1">
    <defs>
     <path id="m5c157ef985" d="M 95.917924 -44.996642 
L 95.405469 -44.996642 
L 95.408507 -46.287568 
L 95.420705 -47.578493 
L 95.438287 -48.869418 
L 95.456122 -50.160343 
L 95.468594 -51.451269 
L 95.470571 -52.742194 
L 95.458273 -54.033119 
L 95.429917 -55.324044 
L 95.386046 -56.61497 
L 95.329495 -57.905895 
L 95.264997 -59.19682 
L 95.198466 -60.487745 
L 95.136069 -61.778671 
L 95.083248 -63.069596 
L 95.043878 -64.360521 
L 95.019743 -65.651446 
L 95.010395 -66.942372 
L 95.013384 -68.233297 
L 95.024732 -69.524222 
L 95.039531 -70.815147 
L 95.052501 -72.106073 
L 95.058471 -73.396998 
L 95.052757 -74.687923 
L 95.031479 -75.978848 
L 94.991858 -77.269773 
L 94.932513 -78.560699 
L 94.85371 -79.851624 
L 94.757468 -81.142549 
L 94.647366 -82.433474 
L 94.527934 -83.7244 
L 94.403598 -85.015325 
L 94.277335 -86.30625 
L 94.149299 -87.597175 
L 94.0158 -88.888101 
L 93.868896 -90.179026 
L 93.696734 -91.469951 
L 93.484545 -92.760876 
L 93.216073 -94.051802 
L 92.875212 -95.342727 
L 92.447708 -96.633652 
L 91.922876 -97.924577 
L 91.295315 -99.215503 
L 90.566428 -100.506428 
L 89.745412 -101.797353 
L 88.84921 -103.088278 
L 87.901059 -104.379204 
L 86.927649 -105.670129 
L 85.955447 -106.961054 
L 85.007236 -108.251979 
L 84.100019 -109.542905 
L 83.24513 -110.83383 
L 82.450557 -112.124755 
L 81.72462 -113.41568 
L 81.079437 -114.706605 
L 80.53248 -115.997531 
L 80.105057 -117.288456 
L 79.817537 -118.579381 
L 79.682329 -119.870306 
L 79.696475 -121.161232 
L 79.836003 -122.452157 
L 80.053741 -123.743082 
L 80.281416 -125.034007 
L 80.435693 -126.324933 
L 80.426965 -127.615858 
L 80.169208 -128.906783 
L 79.589338 -130.197708 
L 78.634998 -131.488634 
L 77.280344 -132.779559 
L 75.529927 -134.070484 
L 73.420943 -135.361409 
L 71.023956 -136.652335 
L 68.441819 -137.94326 
L 65.806254 -139.234185 
L 63.271494 -140.52511 
L 61.004708 -141.816036 
L 59.173398 -143.106961 
L 57.930552 -144.397886 
L 57.398839 -145.688811 
L 57.655702 -146.979736 
L 58.721604 -148.270662 
L 60.553928 -149.561587 
L 63.04865 -150.852512 
L 66.050755 -152.143437 
L 69.372523 -153.434363 
L 72.8167 -154.725288 
L 76.200093 -156.016213 
L 79.372831 -157.307138 
L 82.229792 -158.598064 
L 84.712952 -159.888989 
L 86.805944 -161.179914 
L 88.523903 -162.470839 
L 89.902148 -163.761765 
L 90.986538 -165.05269 
L 91.82676 -166.343615 
L 92.472346 -167.63454 
L 92.970298 -168.925466 
L 93.363164 -170.216391 
L 93.686995 -171.507316 
L 93.969384 -172.798241 
L 97.354008 -172.798241 
L 97.354008 -172.798241 
L 97.636398 -171.507316 
L 97.960229 -170.216391 
L 98.353095 -168.925466 
L 98.851047 -167.63454 
L 99.496633 -166.343615 
L 100.336855 -165.05269 
L 101.421245 -163.761765 
L 102.79949 -162.470839 
L 104.517449 -161.179914 
L 106.610441 -159.888989 
L 109.0936 -158.598064 
L 111.950561 -157.307138 
L 115.1233 -156.016213 
L 118.506693 -154.725288 
L 121.95087 -153.434363 
L 125.272638 -152.143437 
L 128.274743 -150.852512 
L 130.769464 -149.561587 
L 132.601789 -148.270662 
L 133.667691 -146.979736 
L 133.924554 -145.688811 
L 133.392841 -144.397886 
L 132.149995 -143.106961 
L 130.318685 -141.816036 
L 128.051899 -140.52511 
L 125.517139 -139.234185 
L 122.881574 -137.94326 
L 120.299437 -136.652335 
L 117.90245 -135.361409 
L 115.793466 -134.070484 
L 114.043049 -132.779559 
L 112.688395 -131.488634 
L 111.734055 -130.197708 
L 111.154185 -128.906783 
L 110.896428 -127.615858 
L 110.8877 -126.324933 
L 111.041977 -125.034007 
L 111.269652 -123.743082 
L 111.48739 -122.452157 
L 111.626917 -121.161232 
L 111.641064 -119.870306 
L 111.505856 -118.579381 
L 111.218336 -117.288456 
L 110.790913 -115.997531 
L 110.243956 -114.706605 
L 109.598773 -113.41568 
L 108.872836 -112.124755 
L 108.078263 -110.83383 
L 107.223374 -109.542905 
L 106.316157 -108.251979 
L 105.367945 -106.961054 
L 104.395744 -105.670129 
L 103.422334 -104.379204 
L 102.474183 -103.088278 
L 101.57798 -101.797353 
L 100.756965 -100.506428 
L 100.028078 -99.215503 
L 99.400516 -97.924577 
L 98.875685 -96.633652 
L 98.448181 -95.342727 
L 98.10732 -94.051802 
L 97.838848 -92.760876 
L 97.626659 -91.469951 
L 97.454497 -90.179026 
L 97.307593 -88.888101 
L 97.174094 -87.597175 
L 97.046058 -86.30625 
L 96.919795 -85.015325 
L 96.795459 -83.7244 
L 96.676026 -82.433474 
L 96.565925 -81.142549 
L 96.469683 -79.851624 
L 96.39088 -78.560699 
L 96.331535 -77.269773 
L 96.291914 -75.978848 
L 96.270636 -74.687923 
L 96.264922 -73.396998 
L 96.270892 -72.106073 
L 96.283862 -70.815147 
L 96.29866 -69.524222 
L 96.310009 -68.233297 
L 96.312998 -66.942372 
L 96.30365 -65.651446 
L 96.279515 -64.360521 
L 96.240145 -63.069596 
L 96.187324 -61.778671 
L 96.124927 -60.487745 
L 96.058396 -59.19682 
L 95.993898 -57.905895 
L 95.937347 -56.61497 
L 95.893476 -55.324044 
L 95.86512 -54.033119 
L 95.852822 -52.742194 
L 95.854799 -51.451269 
L 95.867271 -50.160343 
L 95.885106 -48.869418 
L 95.902688 -47.578493 
L 95.914886 -46.287568 
L 95.917924 -44.996642 
z
" style="stroke: #303030; stroke-width: 1.25"/>
    </defs>
    <g clip-path="url(#pe18c9afc09)">
     <use xlink:href="#m5c157ef985" x="0" y="245.496139" style="fill: #c08089; stroke: #303030; stroke-width: 1.25"/>
    </g>
   </g>
   <g id="PolyCollection_2">
    <defs>
     <path id="md80cc922d1" d="M 193.925319 -124.434016 
L 188.71236 -124.434016 
L 188.535879 -124.770483 
L 188.368824 -125.10695 
L 188.21317 -125.443418 
L 188.070544 -125.779885 
L 187.942174 -126.116352 
L 187.828846 -126.45282 
L 187.73088 -126.789287 
L 187.648119 -127.125754 
L 187.579932 -127.462222 
L 187.525234 -127.798689 
L 187.482518 -128.135156 
L 187.449903 -128.471624 
L 187.425195 -128.808091 
L 187.40596 -129.144558 
L 187.389603 -129.481025 
L 187.373454 -129.817493 
L 187.354851 -130.15396 
L 187.33122 -130.490427 
L 187.300135 -130.826895 
L 187.259375 -131.163362 
L 187.206943 -131.499829 
L 187.14108 -131.836297 
L 187.060245 -132.172764 
L 186.963087 -132.509231 
L 186.848399 -132.845699 
L 186.715066 -133.182166 
L 186.562016 -133.518633 
L 186.388176 -133.855101 
L 186.192438 -134.191568 
L 185.973638 -134.528035 
L 185.730547 -134.864502 
L 185.461868 -135.20097 
L 185.166241 -135.537437 
L 184.84224 -135.873904 
L 184.488371 -136.210372 
L 184.10305 -136.546839 
L 183.684573 -136.883306 
L 183.23108 -137.219774 
L 182.740501 -137.556241 
L 182.210513 -137.892708 
L 181.638511 -138.229176 
L 181.021593 -138.565643 
L 180.356583 -138.90211 
L 179.640104 -139.238577 
L 178.868691 -139.575045 
L 178.038967 -139.911512 
L 177.147867 -140.247979 
L 176.192907 -140.584447 
L 175.172492 -140.920914 
L 174.086234 -141.257381 
L 172.935279 -141.593849 
L 171.722591 -141.930316 
L 170.453203 -142.266783 
L 169.134383 -142.603251 
L 167.775709 -142.939718 
L 166.389033 -143.276185 
L 164.988329 -143.612653 
L 163.589417 -143.94912 
L 162.209572 -144.285587 
L 160.867042 -144.622054 
L 159.580481 -144.958522 
L 158.368349 -145.294989 
L 157.248285 -145.631456 
L 156.236522 -145.967924 
L 155.347346 -146.304391 
L 154.592656 -146.640858 
L 153.981635 -146.977326 
L 153.520558 -147.313793 
L 153.212737 -147.65026 
L 153.058616 -147.986728 
L 153.055982 -148.323195 
L 153.200297 -148.659662 
L 153.4851 -148.996129 
L 153.902458 -149.332597 
L 154.443431 -149.669064 
L 155.098517 -150.005531 
L 155.85803 -150.341999 
L 156.71242 -150.678466 
L 157.652487 -151.014933 
L 158.669503 -151.351401 
L 159.755238 -151.687868 
L 160.901915 -152.024335 
L 162.10209 -152.360803 
L 163.348513 -152.69727 
L 164.633974 -153.033737 
L 165.951158 -153.370204 
L 167.292553 -153.706672 
L 168.65039 -154.043139 
L 170.016651 -154.379606 
L 171.383131 -154.716074 
L 172.741541 -155.052541 
L 174.083659 -155.389008 
L 175.401484 -155.725476 
L 176.687411 -156.061943 
L 177.934382 -156.39841 
L 179.136018 -156.734878 
L 180.286725 -157.071345 
L 181.381758 -157.407812 
L 182.417257 -157.74428 
L 200.220422 -157.74428 
L 200.220422 -157.74428 
L 201.255921 -157.407812 
L 202.350953 -157.071345 
L 203.50166 -156.734878 
L 204.703297 -156.39841 
L 205.950268 -156.061943 
L 207.236195 -155.725476 
L 208.55402 -155.389008 
L 209.896137 -155.052541 
L 211.254548 -154.716074 
L 212.621028 -154.379606 
L 213.987289 -154.043139 
L 215.345126 -153.706672 
L 216.68652 -153.370204 
L 218.003705 -153.033737 
L 219.289165 -152.69727 
L 220.535589 -152.360803 
L 221.735764 -152.024335 
L 222.88244 -151.687868 
L 223.968176 -151.351401 
L 224.985191 -151.014933 
L 225.925258 -150.678466 
L 226.779649 -150.341999 
L 227.539162 -150.005531 
L 228.194247 -149.669064 
L 228.735221 -149.332597 
L 229.152579 -148.996129 
L 229.437381 -148.659662 
L 229.581696 -148.323195 
L 229.579063 -147.986728 
L 229.424942 -147.65026 
L 229.117121 -147.313793 
L 228.656043 -146.977326 
L 228.045023 -146.640858 
L 227.290333 -146.304391 
L 226.401157 -145.967924 
L 225.389393 -145.631456 
L 224.26933 -145.294989 
L 223.057197 -144.958522 
L 221.770637 -144.622054 
L 220.428107 -144.285587 
L 219.048262 -143.94912 
L 217.649349 -143.612653 
L 216.248645 -143.276185 
L 214.861969 -142.939718 
L 213.503295 -142.603251 
L 212.184475 -142.266783 
L 210.915088 -141.930316 
L 209.7024 -141.593849 
L 208.551444 -141.257381 
L 207.465187 -140.920914 
L 206.444771 -140.584447 
L 205.489811 -140.247979 
L 204.598711 -139.911512 
L 203.768988 -139.575045 
L 202.997575 -139.238577 
L 202.281096 -138.90211 
L 201.616086 -138.565643 
L 200.999167 -138.229176 
L 200.427165 -137.892708 
L 199.897178 -137.556241 
L 199.406598 -137.219774 
L 198.953105 -136.883306 
L 198.534629 -136.546839 
L 198.149308 -136.210372 
L 197.795438 -135.873904 
L 197.471438 -135.537437 
L 197.17581 -135.20097 
L 196.907132 -134.864502 
L 196.664041 -134.528035 
L 196.445241 -134.191568 
L 196.249503 -133.855101 
L 196.075663 -133.518633 
L 195.922612 -133.182166 
L 195.789279 -132.845699 
L 195.674591 -132.509231 
L 195.577434 -132.172764 
L 195.496599 -131.836297 
L 195.430735 -131.499829 
L 195.378304 -131.163362 
L 195.337543 -130.826895 
L 195.306459 -130.490427 
L 195.282827 -130.15396 
L 195.264225 -129.817493 
L 195.248075 -129.481025 
L 195.231718 -129.144558 
L 195.212484 -128.808091 
L 195.187776 -128.471624 
L 195.155161 -128.135156 
L 195.112445 -127.798689 
L 195.057747 -127.462222 
L 194.98956 -127.125754 
L 194.906798 -126.789287 
L 194.808832 -126.45282 
L 194.695504 -126.116352 
L 194.567134 -125.779885 
L 194.424509 -125.443418 
L 194.268855 -125.10695 
L 194.1018 -124.770483 
L 193.925319 -124.434016 
z
" style="stroke: #303030; stroke-width: 1.25"/>
    </defs>
    <g clip-path="url(#pe18c9afc09)">
     <use xlink:href="#md80cc922d1" x="0" y="245.496139" style="fill: #2f7499; stroke: #303030; stroke-width: 1.25"/>
    </g>
   </g>
   <g id="matplotlib.axis_1">
    <g id="xtick_1">
     <g id="line2d_1">
      <defs>
       <path id="m8c17fd3755" d="M 0 0 
L 0 3.5 
" style="stroke: #000000; stroke-width: 0.8"/>
      </defs>
      <g>
       <use xlink:href="#m8c17fd3755" x="95.661696" y="206.889577" style="stroke: #000000; stroke-width: 0.8"/>
      </g>
     </g>
     <g id="text_1">
      <text style="font: 10px 'Arial'; text-anchor: middle" x="95.661696" y="221.047389" transform="rotate(-0 95.661696 221.047389)">PLP</text>
     </g>
    </g>
    <g id="xtick_2">
     <g id="line2d_2">
      <g>
       <use xlink:href="#m8c17fd3755" x="191.318839" y="206.889577" style="stroke: #000000; stroke-width: 0.8"/>
      </g>
     </g>
     <g id="text_2">
      <text style="font: 10px 'Arial'; text-anchor: middle" x="191.318839" y="221.047389" transform="rotate(-0 191.318839 221.047389)">BLB</text>
     </g>
    </g>
   </g>
   <g id="matplotlib.axis_2">
    <g id="ytick_1">
     <g id="line2d_3">
      <defs>
       <path id="m514df84add" d="M 0 0 
L -3.5 0 
" style="stroke: #000000; stroke-width: 0.8"/>
      </defs>
      <g>
       <use xlink:href="#m514df84add" x="47.833125" y="184.217272" style="stroke: #000000; stroke-width: 0.8"/>
      </g>
     </g>
     <g id="text_3">
      <text style="font: 11px 'Arial'; text-anchor: end" x="40.833125" y="188.154069" transform="rotate(-0 40.833125 188.154069)">−15</text>
     </g>
    </g>
    <g id="ytick_2">
     <g id="line2d_4">
      <g>
       <use xlink:href="#m514df84add" x="47.833125" y="155.169892" style="stroke: #000000; stroke-width: 0.8"/>
      </g>
     </g>
     <g id="text_4">
      <text style="font: 11px 'Arial'; text-anchor: end" x="40.833125" y="159.106689" transform="rotate(-0 40.833125 159.106689)">−10</text>
     </g>
    </g>
    <g id="ytick_3">
     <g id="line2d_5">
      <g>
       <use xlink:href="#m514df84add" x="47.833125" y="126.122512" style="stroke: #000000; stroke-width: 0.8"/>
      </g>
     </g>
     <g id="text_5">
      <text style="font: 11px 'Arial'; text-anchor: end" x="40.833125" y="130.059309" transform="rotate(-0 40.833125 130.059309)">−5</text>
     </g>
    </g>
    <g id="ytick_4">
     <g id="line2d_6">
      <g>
       <use xlink:href="#m514df84add" x="47.833125" y="97.075132" style="stroke: #000000; stroke-width: 0.8"/>
      </g>
     </g>
     <g id="text_6">
      <text style="font: 11px 'Arial'; text-anchor: end" x="40.833125" y="101.011928" transform="rotate(-0 40.833125 101.011928)">0</text>
     </g>
    </g>
    <g id="ytick_5">
     <g id="line2d_7">
      <g>
       <use xlink:href="#m514df84add" x="47.833125" y="68.027751" style="stroke: #000000; stroke-width: 0.8"/>
      </g>
     </g>
     <g id="text_7">
      <text style="font: 11px 'Arial'; text-anchor: end" x="40.833125" y="71.964548" transform="rotate(-0 40.833125 71.964548)">5</text>
     </g>
    </g>
    <g id="text_8">
     <text style="font: 12px 'Arial'; text-anchor: middle" x="15.789375" y="123.729577" transform="rotate(-90 15.789375 123.729577)">Abundance Score</text>
    </g>
   </g>
   <g id="line2d_8">
    <path d="M 95.661696 160.037836 
L 95.661696 72.697898 
" clip-path="url(#pe18c9afc09)" style="fill: none; stroke: #303030; stroke-width: 1.875; stroke-linecap: square"/>
   </g>
   <g id="line2d_9">
    <path d="M 95.661696 123.501836 
L 95.661696 97.070844 
" clip-path="url(#pe18c9afc09)" style="fill: none; stroke: #303030; stroke-width: 5.625; stroke-linecap: square"/>
   </g>
   <g id="line2d_10">
    <path d="M 95.661696 104.34077 
" clip-path="url(#pe18c9afc09)" style="fill: none; stroke: #303030; stroke-width: 1.5; stroke-linecap: square"/>
    <defs>
     <path id="mcc471607c7" d="M 2.34375 0 
L -2.34375 -0 
" style="stroke: #ffffff; stroke-width: 1.125"/>
    </defs>
    <g clip-path="url(#pe18c9afc09)">
     <use xlink:href="#mcc471607c7" x="95.661696" y="104.34077" style="fill: #ffffff; stroke: #ffffff; stroke-width: 1.125"/>
    </g>
   </g>
   <g id="line2d_11">
    <path d="M 191.318839 108.517398 
L 191.318839 87.75186 
" clip-path="url(#pe18c9afc09)" style="fill: none; stroke: #303030; stroke-width: 1.875; stroke-linecap: square"/>
   </g>
   <g id="line2d_12">
    <path d="M 191.318839 101.220004 
L 191.318839 94.46921 
" clip-path="url(#pe18c9afc09)" style="fill: none; stroke: #303030; stroke-width: 5.625; stroke-linecap: square"/>
   </g>
   <g id="line2d_13">
    <path d="M 191.318839 97.889146 
" clip-path="url(#pe18c9afc09)" style="fill: none; stroke: #303030; stroke-width: 1.5; stroke-linecap: square"/>
    <g clip-path="url(#pe18c9afc09)">
     <use xlink:href="#mcc471607c7" x="191.318839" y="97.889146" style="fill: #ffffff; stroke: #ffffff; stroke-width: 1.125"/>
    </g>
   </g>
   <g id="line2d_14">
    <path d="M 95.661696 65.66881 
L 95.661696 62.857175 
L 191.318839 62.857175 
L 191.318839 65.66881 
" style="fill: none; stroke: #333333; stroke-width: 1.5; stroke-linecap: square"/>
   </g>
   <g id="patch_3">
    <path d="M 47.833125 206.889577 
L 47.833125 40.569577 
" style="fill: none; stroke: #000000; stroke-width: 0.8; stroke-linejoin: miter; stroke-linecap: square"/>
   </g>
   <g id="patch_4">
    <path d="M 47.833125 206.889577 
L 239.147411 206.889577 
" style="fill: none; stroke: #000000; stroke-width: 0.8; stroke-linejoin: miter; stroke-linecap: square"/>
   </g>
   <g id="text_9">
    <!-- p=6.2×10$^{-8}$ -->
    <g transform="translate(111.690268 52.457175)">
     <text>
      <tspan style="font: 12px 'Arial'" x="0 6.673828 13.681641 20.355469 23.689453 30.363281 37.371094 44.044922" y="-0.171875">p=6.2×10</tspan>
      <tspan style="font: 8.4px 'DejaVu Sans'" x="50.833594 57.871875" y="-4.765625">−8</tspan>
     </text>
    </g>
   </g>
  </g>
  <g id="axes_2">
   <g id="patch_5">
    <path d="M 286.975982 206.889577 
L 478.290268 206.889577 
L 478.290268 40.569577 
L 286.975982 40.569577 
L 286.975982 206.889577 
z
" style="fill: none"/>
   </g>
   <g id="PolyCollection_3">
    <defs>
     <path id="me9e62c6400" d="M 349.197328 -38.712824 
L 320.411779 -38.712824 
L 318.959462 -40.07033 
L 317.493255 -41.427836 
L 316.025036 -42.785341 
L 314.565186 -44.142847 
L 313.122402 -45.500353 
L 311.703713 -46.857859 
L 310.314704 -48.215364 
L 308.959905 -49.57287 
L 307.643295 -50.930376 
L 306.368843 -52.287881 
L 305.141009 -53.645387 
L 303.96513 -55.002893 
L 302.847641 -56.360398 
L 301.796077 -57.717904 
L 300.818865 -59.07541 
L 299.924914 -60.432916 
L 299.123057 -61.790421 
L 298.421408 -63.147927 
L 297.826719 -64.505433 
L 297.343814 -65.862938 
L 296.975177 -67.220444 
L 296.720734 -68.57795 
L 296.577877 -69.935455 
L 296.541696 -71.292961 
L 296.605421 -72.650467 
L 296.760982 -74.007973 
L 296.999638 -75.365478 
L 297.312595 -76.722984 
L 297.691524 -78.08049 
L 298.128941 -79.437995 
L 298.618402 -80.795501 
L 299.154517 -82.153007 
L 299.732795 -83.510513 
L 300.349364 -84.868018 
L 301.000627 -86.225524 
L 301.68291 -87.58303 
L 302.392162 -88.940535 
L 303.123763 -90.298041 
L 303.872436 -91.655547 
L 304.632311 -93.013052 
L 305.39708 -94.370558 
L 306.160248 -95.728064 
L 306.915414 -97.08557 
L 307.65655 -98.443075 
L 308.378235 -99.800581 
L 309.075813 -101.158087 
L 309.745472 -102.515592 
L 310.384222 -103.873098 
L 310.989822 -105.230604 
L 311.560644 -106.588109 
L 312.095535 -107.945615 
L 312.593684 -109.303121 
L 313.054529 -110.660627 
L 313.477717 -112.018132 
L 313.863104 -113.375638 
L 314.210807 -114.733144 
L 314.521272 -116.090649 
L 314.79534 -117.448155 
L 315.034294 -118.805661 
L 315.23986 -120.163167 
L 315.414174 -121.520672 
L 315.559689 -122.878178 
L 315.679075 -124.235684 
L 315.775107 -125.593189 
L 315.850585 -126.950695 
L 315.908314 -128.308201 
L 315.951155 -129.665706 
L 315.982167 -131.023212 
L 316.004813 -132.380718 
L 316.023221 -133.738224 
L 316.042444 -135.095729 
L 316.068673 -136.453235 
L 316.109348 -137.810741 
L 316.173128 -139.168246 
L 316.269676 -140.525752 
L 316.409258 -141.883258 
L 316.602181 -143.240763 
L 316.8581 -144.598269 
L 317.185265 -145.955775 
L 317.589796 -147.313281 
L 318.075052 -148.670786 
L 318.641187 -150.028292 
L 319.284934 -151.385798 
L 319.999665 -152.743303 
L 320.775712 -154.100809 
L 321.600925 -155.458315 
L 322.461413 -156.815821 
L 323.342387 -158.173326 
L 324.229028 -159.530832 
L 325.107296 -160.888338 
L 325.964604 -162.245843 
L 326.790322 -163.603349 
L 327.576076 -164.960855 
L 328.315843 -166.31836 
L 329.005856 -167.675866 
L 329.644373 -169.033372 
L 330.231334 -170.390878 
L 330.767981 -171.748383 
L 331.256459 -173.105889 
L 338.352648 -173.105889 
L 338.352648 -173.105889 
L 338.841126 -171.748383 
L 339.377773 -170.390878 
L 339.964735 -169.033372 
L 340.603251 -167.675866 
L 341.293264 -166.31836 
L 342.033031 -164.960855 
L 342.818785 -163.603349 
L 343.644503 -162.245843 
L 344.501811 -160.888338 
L 345.380079 -159.530832 
L 346.266721 -158.173326 
L 347.147695 -156.815821 
L 348.008182 -155.458315 
L 348.833395 -154.100809 
L 349.609442 -152.743303 
L 350.324174 -151.385798 
L 350.96792 -150.028292 
L 351.534055 -148.670786 
L 352.019311 -147.313281 
L 352.423842 -145.955775 
L 352.751008 -144.598269 
L 353.006926 -143.240763 
L 353.19985 -141.883258 
L 353.339432 -140.525752 
L 353.435979 -139.168246 
L 353.499759 -137.810741 
L 353.540435 -136.453235 
L 353.566663 -135.095729 
L 353.585886 -133.738224 
L 353.604294 -132.380718 
L 353.626941 -131.023212 
L 353.657952 -129.665706 
L 353.700794 -128.308201 
L 353.758522 -126.950695 
L 353.834 -125.593189 
L 353.930032 -124.235684 
L 354.049418 -122.878178 
L 354.194934 -121.520672 
L 354.369247 -120.163167 
L 354.574814 -118.805661 
L 354.813767 -117.448155 
L 355.087835 -116.090649 
L 355.3983 -114.733144 
L 355.746003 -113.375638 
L 356.13139 -112.018132 
L 356.554578 -110.660627 
L 357.015423 -109.303121 
L 357.513572 -107.945615 
L 358.048463 -106.588109 
L 358.619285 -105.230604 
L 359.224885 -103.873098 
L 359.863636 -102.515592 
L 360.533294 -101.158087 
L 361.230873 -99.800581 
L 361.952557 -98.443075 
L 362.693693 -97.08557 
L 363.448859 -95.728064 
L 364.212027 -94.370558 
L 364.976796 -93.013052 
L 365.736671 -91.655547 
L 366.485344 -90.298041 
L 367.216945 -88.940535 
L 367.926198 -87.58303 
L 368.60848 -86.225524 
L 369.259743 -84.868018 
L 369.876312 -83.510513 
L 370.45459 -82.153007 
L 370.990706 -80.795501 
L 371.480166 -79.437995 
L 371.917583 -78.08049 
L 372.296512 -76.722984 
L 372.609469 -75.365478 
L 372.848126 -74.007973 
L 373.003686 -72.650467 
L 373.067411 -71.292961 
L 373.031231 -69.935455 
L 372.888373 -68.57795 
L 372.633931 -67.220444 
L 372.265293 -65.862938 
L 371.782389 -64.505433 
L 371.187699 -63.147927 
L 370.48605 -61.790421 
L 369.684193 -60.432916 
L 368.790242 -59.07541 
L 367.81303 -57.717904 
L 366.761466 -56.360398 
L 365.643977 -55.002893 
L 364.468098 -53.645387 
L 363.240264 -52.287881 
L 361.965812 -50.930376 
L 360.649202 -49.57287 
L 359.294403 -48.215364 
L 357.905394 -46.857859 
L 356.486705 -45.500353 
L 355.043922 -44.142847 
L 353.584072 -42.785341 
L 352.115852 -41.427836 
L 350.649646 -40.07033 
L 349.197328 -38.712824 
z
" style="stroke: #303030; stroke-width: 1.25"/>
    </defs>
    <g clip-path="url(#pb0359ca3bb)">
     <use xlink:href="#me9e62c6400" x="0" y="245.496139" style="fill: #c08089; stroke: #303030; stroke-width: 1.25"/>
    </g>
   </g>
   <g id="PolyCollection_4">
    <defs>
     <path id="mb7091dafd3" d="M 445.928282 -41.432661 
L 414.995111 -41.432661 
L 413.910297 -42.447303 
L 412.808274 -43.461944 
L 411.693596 -44.476585 
L 410.570997 -45.491226 
L 409.445355 -46.505867 
L 408.321656 -47.520508 
L 407.204947 -48.53515 
L 406.100289 -49.549791 
L 405.012711 -50.564432 
L 403.947147 -51.579073 
L 402.908384 -52.593714 
L 401.901004 -53.608355 
L 400.929322 -54.622997 
L 399.997336 -55.637638 
L 399.108682 -56.652279 
L 398.26659 -57.66692 
L 397.473859 -58.681561 
L 396.732841 -59.696202 
L 396.04544 -60.710844 
L 395.413126 -61.725485 
L 394.836958 -62.740126 
L 394.317627 -63.754767 
L 393.855499 -64.769408 
L 393.450675 -65.784049 
L 393.103045 -66.798691 
L 392.81235 -67.813332 
L 392.578227 -68.827973 
L 392.40026 -69.842614 
L 392.278006 -70.857255 
L 392.211017 -71.871896 
L 392.198839 -72.886538 
L 392.241002 -73.901179 
L 392.336987 -74.91582 
L 392.486196 -75.930461 
L 392.687895 -76.945102 
L 392.941164 -77.959743 
L 393.244847 -78.974385 
L 393.597499 -79.989026 
L 393.997349 -81.003667 
L 394.442276 -82.018308 
L 394.929794 -83.032949 
L 395.457066 -84.04759 
L 396.020926 -85.062232 
L 396.617929 -86.076873 
L 397.244411 -87.091514 
L 397.896566 -88.106155 
L 398.570533 -89.120796 
L 399.262483 -90.135437 
L 399.968716 -91.150079 
L 400.685743 -92.16472 
L 401.410362 -93.179361 
L 402.139728 -94.194002 
L 402.871393 -95.208643 
L 403.603339 -96.223284 
L 404.333986 -97.237926 
L 405.06218 -98.252567 
L 405.787168 -99.267208 
L 406.508548 -100.281849 
L 407.226217 -101.29649 
L 407.940297 -102.311131 
L 408.651066 -103.325773 
L 409.358881 -104.340414 
L 410.0641 -105.355055 
L 410.767016 -106.369696 
L 411.46779 -107.384337 
L 412.166399 -108.398978 
L 412.862594 -109.41362 
L 413.555871 -110.428261 
L 414.245452 -111.442902 
L 414.930283 -112.457543 
L 415.609042 -113.472184 
L 416.280157 -114.486825 
L 416.941839 -115.501467 
L 417.592124 -116.516108 
L 418.228916 -117.530749 
L 418.850048 -118.54539 
L 419.453333 -119.560031 
L 420.036634 -120.574672 
L 420.597923 -121.589314 
L 421.135345 -122.603955 
L 421.647274 -123.618596 
L 422.132375 -124.633237 
L 422.589643 -125.647878 
L 423.018451 -126.662519 
L 423.418573 -127.677161 
L 423.790203 -128.691802 
L 424.133962 -129.706443 
L 424.450883 -130.721084 
L 424.742392 -131.735725 
L 425.010268 -132.750366 
L 425.256593 -133.765008 
L 425.483692 -134.779649 
L 425.694065 -135.79429 
L 425.890303 -136.808931 
L 426.075018 -137.823572 
L 426.250757 -138.838213 
L 426.419927 -139.852855 
L 426.584729 -140.867496 
L 426.747094 -141.882137 
L 434.176299 -141.882137 
L 434.176299 -141.882137 
L 434.338663 -140.867496 
L 434.503466 -139.852855 
L 434.672636 -138.838213 
L 434.848375 -137.823572 
L 435.03309 -136.808931 
L 435.229328 -135.79429 
L 435.4397 -134.779649 
L 435.6668 -133.765008 
L 435.913125 -132.750366 
L 436.181001 -131.735725 
L 436.47251 -130.721084 
L 436.789431 -129.706443 
L 437.13319 -128.691802 
L 437.50482 -127.677161 
L 437.904942 -126.662519 
L 438.33375 -125.647878 
L 438.791018 -124.633237 
L 439.276118 -123.618596 
L 439.788048 -122.603955 
L 440.32547 -121.589314 
L 440.886759 -120.574672 
L 441.47006 -119.560031 
L 442.073345 -118.54539 
L 442.694476 -117.530749 
L 443.331269 -116.516108 
L 443.981554 -115.501467 
L 444.643236 -114.486825 
L 445.314351 -113.472184 
L 445.993109 -112.457543 
L 446.677941 -111.442902 
L 447.367522 -110.428261 
L 448.060799 -109.41362 
L 448.756994 -108.398978 
L 449.455603 -107.384337 
L 450.156377 -106.369696 
L 450.859292 -105.355055 
L 451.564512 -104.340414 
L 452.272327 -103.325773 
L 452.983096 -102.311131 
L 453.697176 -101.29649 
L 454.414844 -100.281849 
L 455.136225 -99.267208 
L 455.861213 -98.252567 
L 456.589407 -97.237926 
L 457.320054 -96.223284 
L 458.052 -95.208643 
L 458.783665 -94.194002 
L 459.513031 -93.179361 
L 460.23765 -92.16472 
L 460.954677 -91.150079 
L 461.66091 -90.135437 
L 462.35286 -89.120796 
L 463.026827 -88.106155 
L 463.678982 -87.091514 
L 464.305464 -86.076873 
L 464.902467 -85.062232 
L 465.466327 -84.04759 
L 465.993599 -83.032949 
L 466.481117 -82.018308 
L 466.926044 -81.003667 
L 467.325894 -79.989026 
L 467.678546 -78.974385 
L 467.982228 -77.959743 
L 468.235498 -76.945102 
L 468.437196 -75.930461 
L 468.586405 -74.91582 
L 468.682391 -73.901179 
L 468.724554 -72.886538 
L 468.712376 -71.871896 
L 468.645387 -70.857255 
L 468.523133 -69.842614 
L 468.345166 -68.827973 
L 468.111043 -67.813332 
L 467.820348 -66.798691 
L 467.472718 -65.784049 
L 467.067894 -64.769408 
L 466.605766 -63.754767 
L 466.086434 -62.740126 
L 465.510267 -61.725485 
L 464.877953 -60.710844 
L 464.190552 -59.696202 
L 463.449534 -58.681561 
L 462.656803 -57.66692 
L 461.81471 -56.652279 
L 460.926056 -55.637638 
L 459.994071 -54.622997 
L 459.022389 -53.608355 
L 458.015008 -52.593714 
L 456.976246 -51.579073 
L 455.910682 -50.564432 
L 454.823104 -49.549791 
L 453.718446 -48.53515 
L 452.601737 -47.520508 
L 451.478037 -46.505867 
L 450.352396 -45.491226 
L 449.229797 -44.476585 
L 448.115118 -43.461944 
L 447.013096 -42.447303 
L 445.928282 -41.432661 
z
" style="stroke: #303030; stroke-width: 1.25"/>
    </defs>
    <g clip-path="url(#pb0359ca3bb)">
     <use xlink:href="#mb7091dafd3" x="0" y="245.496139" style="fill: #2f7499; stroke: #303030; stroke-width: 1.25"/>
    </g>
   </g>
   <g id="matplotlib.axis_3">
    <g id="xtick_3">
     <g id="line2d_15">
      <g>
       <use xlink:href="#m8c17fd3755" x="334.804554" y="206.889577" style="stroke: #000000; stroke-width: 0.8"/>
      </g>
     </g>
     <g id="text_10">
      <text style="font: 10px 'Arial'; text-anchor: middle" x="334.804554" y="221.047389" transform="rotate(-0 334.804554 221.047389)">PLP</text>
     </g>
    </g>
    <g id="xtick_4">
     <g id="line2d_16">
      <g>
       <use xlink:href="#m8c17fd3755" x="430.461696" y="206.889577" style="stroke: #000000; stroke-width: 0.8"/>
      </g>
     </g>
     <g id="text_11">
      <text style="font: 10px 'Arial'; text-anchor: middle" x="430.461696" y="221.047389" transform="rotate(-0 430.461696 221.047389)">BLB</text>
     </g>
    </g>
    <g id="text_12">
     <text style="font: 12px 'Arial'; text-anchor: middle" x="382.633125" y="235.770514" transform="rotate(-0 382.633125 235.770514)">Clinical Significance</text>
    </g>
   </g>
   <g id="matplotlib.axis_4">
    <g id="ytick_6">
     <g id="line2d_17">
      <g>
       <use xlink:href="#m514df84add" x="286.975982" y="206.889577" style="stroke: #000000; stroke-width: 0.8"/>
      </g>
     </g>
     <g id="text_13">
      <text style="font: 11px 'Arial'; text-anchor: end" x="279.975982" y="210.826374" transform="rotate(-0 279.975982 210.826374)">0.0</text>
     </g>
    </g>
    <g id="ytick_7">
     <g id="line2d_18">
      <g>
       <use xlink:href="#m514df84add" x="286.975982" y="173.625577" style="stroke: #000000; stroke-width: 0.8"/>
      </g>
     </g>
     <g id="text_14">
      <text style="font: 11px 'Arial'; text-anchor: end" x="279.975982" y="177.562374" transform="rotate(-0 279.975982 177.562374)">0.2</text>
     </g>
    </g>
    <g id="ytick_8">
     <g id="line2d_19">
      <g>
       <use xlink:href="#m514df84add" x="286.975982" y="140.361577" style="stroke: #000000; stroke-width: 0.8"/>
      </g>
     </g>
     <g id="text_15">
      <text style="font: 11px 'Arial'; text-anchor: end" x="279.975982" y="144.298374" transform="rotate(-0 279.975982 144.298374)">0.4</text>
     </g>
    </g>
    <g id="ytick_9">
     <g id="line2d_20">
      <g>
       <use xlink:href="#m514df84add" x="286.975982" y="107.097577" style="stroke: #000000; stroke-width: 0.8"/>
      </g>
     </g>
     <g id="text_16">
      <text style="font: 11px 'Arial'; text-anchor: end" x="279.975982" y="111.034374" transform="rotate(-0 279.975982 111.034374)">0.6</text>
     </g>
    </g>
    <g id="ytick_10">
     <g id="line2d_21">
      <g>
       <use xlink:href="#m514df84add" x="286.975982" y="73.833577" style="stroke: #000000; stroke-width: 0.8"/>
      </g>
     </g>
     <g id="text_17">
      <text style="font: 11px 'Arial'; text-anchor: end" x="279.975982" y="77.770374" transform="rotate(-0 279.975982 77.770374)">0.8</text>
     </g>
    </g>
    <g id="ytick_11">
     <g id="line2d_22">
      <g>
       <use xlink:href="#m514df84add" x="286.975982" y="40.569577" style="stroke: #000000; stroke-width: 0.8"/>
      </g>
     </g>
     <g id="text_18">
      <text style="font: 11px 'Arial'; text-anchor: end" x="279.975982" y="44.506374" transform="rotate(-0 279.975982 44.506374)">1.0</text>
     </g>
    </g>
    <g id="text_19">
     <text style="font: 12px 'Arial'; text-anchor: middle" x="258.300982" y="123.729577" transform="rotate(-90 258.300982 123.729577)">PPI Perturbation Score</text>
    </g>
   </g>
   <g id="line2d_23">
    <path d="M 334.804554 206.783315 
L 334.804554 72.39025 
" clip-path="url(#pb0359ca3bb)" style="fill: none; stroke: #303030; stroke-width: 1.875; stroke-linecap: square"/>
   </g>
   <g id="line2d_24">
    <path d="M 334.804554 179.821154 
L 334.804554 126.042277 
" clip-path="url(#pb0359ca3bb)" style="fill: none; stroke: #303030; stroke-width: 5.625; stroke-linecap: square"/>
   </g>
   <g id="line2d_25">
    <path d="M 334.804554 159.926555 
" clip-path="url(#pb0359ca3bb)" style="fill: none; stroke: #303030; stroke-width: 1.5; stroke-linecap: square"/>
    <g clip-path="url(#pb0359ca3bb)">
     <use xlink:href="#mcc471607c7" x="334.804554" y="159.926555" style="fill: #ffffff; stroke: #ffffff; stroke-width: 1.125"/>
    </g>
   </g>
   <g id="line2d_26">
    <path d="M 430.461696 204.063478 
L 430.461696 122.941147 
" clip-path="url(#pb0359ca3bb)" style="fill: none; stroke: #303030; stroke-width: 1.875; stroke-linecap: square"/>
   </g>
   <g id="line2d_27">
    <path d="M 430.461696 183.509719 
L 430.461696 151.6641 
" clip-path="url(#pb0359ca3bb)" style="fill: none; stroke: #303030; stroke-width: 5.625; stroke-linecap: square"/>
   </g>
   <g id="line2d_28">
    <path d="M 430.461696 167.281609 
" clip-path="url(#pb0359ca3bb)" style="fill: none; stroke: #303030; stroke-width: 1.5; stroke-linecap: square"/>
    <g clip-path="url(#pb0359ca3bb)">
     <use xlink:href="#mcc471607c7" x="430.461696" y="167.281609" style="fill: #ffffff; stroke: #ffffff; stroke-width: 1.125"/>
    </g>
   </g>
   <g id="line2d_29">
    <path d="M 334.804554 64.998632 
L 334.804554 62.041984 
L 430.461696 62.041984 
L 430.461696 64.998632 
" style="fill: none; stroke: #333333; stroke-width: 1.5; stroke-linecap: square"/>
   </g>
   <g id="patch_6">
    <path d="M 286.975982 206.889577 
L 286.975982 40.569577 
" style="fill: none; stroke: #000000; stroke-width: 0.8; stroke-linejoin: miter; stroke-linecap: square"/>
   </g>
   <g id="patch_7">
    <path d="M 286.975982 206.889577 
L 478.290268 206.889577 
" style="fill: none; stroke: #000000; stroke-width: 0.8; stroke-linejoin: miter; stroke-linecap: square"/>
   </g>
   <g id="text_20">
    <text style="font: 12px 'Arial'; text-anchor: middle" x="382.633125" y="51.656984" transform="rotate(-0 382.633125 51.656984)">p=0.03</text>
   </g>
  </g>
  <g id="axes_3">
   <g id="patch_8">
    <path d="M 526.118839 206.889577 
L 717.433125 206.889577 
L 717.433125 40.569577 
L 526.118839 40.569577 
L 526.118839 206.889577 
z
" style="fill: none"/>
   </g>
   <g id="PolyCollection_5">
    <defs>
     <path id="m0162a68be5" d="M 577.107463 -54.672828 
L 570.787358 -54.672828 
L 570.323769 -56.189157 
L 569.830453 -57.705486 
L 569.311584 -59.221815 
L 568.771951 -60.738144 
L 568.21669 -62.254473 
L 567.650948 -63.770802 
L 567.079507 -65.287131 
L 566.506381 -66.80346 
L 565.934439 -68.319789 
L 565.365091 -69.836118 
L 564.79809 -71.352447 
L 564.231494 -72.868776 
L 563.661816 -74.385105 
L 563.084374 -75.901434 
L 562.493836 -77.417763 
L 561.884903 -78.934092 
L 561.253081 -80.450421 
L 560.595444 -81.96675 
L 559.911299 -83.483079 
L 559.202654 -84.999408 
L 558.474428 -86.515737 
L 557.734334 -88.032066 
L 556.99244 -89.548395 
L 556.260432 -91.064724 
L 555.550637 -92.581053 
L 554.874905 -94.097382 
L 554.243473 -95.613711 
L 553.663913 -97.13004 
L 553.140291 -98.646369 
L 552.672628 -100.162698 
L 552.256713 -101.679027 
L 551.88431 -103.195356 
L 551.543728 -104.711685 
L 551.220723 -106.228014 
L 550.899632 -107.744343 
L 550.564654 -109.260672 
L 550.201149 -110.777001 
L 549.796854 -112.29333 
L 549.342904 -113.809659 
L 548.834574 -115.325988 
L 548.271701 -116.842317 
L 547.658743 -118.358646 
L 547.004495 -119.874975 
L 546.321498 -121.391304 
L 545.625196 -122.907633 
L 544.932914 -124.423962 
L 544.262743 -125.940291 
L 543.632415 -127.45662 
L 543.058231 -128.972949 
L 542.554115 -130.489278 
L 542.13084 -132.005607 
L 541.795448 -133.521936 
L 541.550895 -135.038265 
L 541.395917 -136.554594 
L 541.32511 -138.070923 
L 541.329222 -139.587251 
L 541.395613 -141.10358 
L 541.50889 -142.619909 
L 541.651649 -144.136238 
L 541.805332 -145.652567 
L 541.951128 -147.168896 
L 542.070904 -148.685225 
L 542.148105 -150.201554 
L 542.1686 -151.717883 
L 542.121399 -153.234212 
L 541.999222 -154.750541 
L 541.798865 -156.26687 
L 541.521331 -157.783199 
L 541.171709 -159.299528 
L 540.758799 -160.815857 
L 540.294499 -162.332186 
L 539.792999 -163.848515 
L 539.269848 -165.364844 
L 538.740973 -166.881173 
L 538.221744 -168.397502 
L 537.72619 -169.913831 
L 537.266432 -171.43016 
L 536.85242 -172.946489 
L 536.491981 -174.462818 
L 536.191189 -175.979147 
L 535.955005 -177.495476 
L 535.788094 -179.011805 
L 535.695717 -180.528134 
L 535.684554 -182.044463 
L 535.763337 -183.560792 
L 535.943175 -185.077121 
L 536.237479 -186.59345 
L 536.661447 -188.109779 
L 537.231135 -189.626108 
L 537.962153 -191.142437 
L 538.86812 -192.658766 
L 539.959023 -194.175095 
L 541.239649 -195.691424 
L 542.708285 -197.207753 
L 544.355823 -198.724082 
L 546.165416 -200.240411 
L 548.112736 -201.75674 
L 550.166851 -203.273069 
L 552.291651 -204.789398 
L 595.603171 -204.789398 
L 595.603171 -204.789398 
L 597.72797 -203.273069 
L 599.782085 -201.75674 
L 601.729406 -200.240411 
L 603.538999 -198.724082 
L 605.186537 -197.207753 
L 606.655172 -195.691424 
L 607.935798 -194.175095 
L 609.026701 -192.658766 
L 609.932668 -191.142437 
L 610.663686 -189.626108 
L 611.233374 -188.109779 
L 611.657343 -186.59345 
L 611.951646 -185.077121 
L 612.131485 -183.560792 
L 612.210268 -182.044463 
L 612.199104 -180.528134 
L 612.106727 -179.011805 
L 611.939817 -177.495476 
L 611.703633 -175.979147 
L 611.402841 -174.462818 
L 611.042401 -172.946489 
L 610.628389 -171.43016 
L 610.168632 -169.913831 
L 609.673078 -168.397502 
L 609.153849 -166.881173 
L 608.624973 -165.364844 
L 608.101822 -163.848515 
L 607.600322 -162.332186 
L 607.136022 -160.815857 
L 606.723112 -159.299528 
L 606.37349 -157.783199 
L 606.095956 -156.26687 
L 605.895599 -154.750541 
L 605.773423 -153.234212 
L 605.726221 -151.717883 
L 605.746716 -150.201554 
L 605.823918 -148.685225 
L 605.943693 -147.168896 
L 606.089489 -145.652567 
L 606.243172 -144.136238 
L 606.385932 -142.619909 
L 606.499208 -141.10358 
L 606.5656 -139.587251 
L 606.569711 -138.070923 
L 606.498905 -136.554594 
L 606.343926 -135.038265 
L 606.099373 -133.521936 
L 605.763982 -132.005607 
L 605.340707 -130.489278 
L 604.836591 -128.972949 
L 604.262406 -127.45662 
L 603.632078 -125.940291 
L 602.961907 -124.423962 
L 602.269625 -122.907633 
L 601.573323 -121.391304 
L 600.890327 -119.874975 
L 600.236079 -118.358646 
L 599.62312 -116.842317 
L 599.060247 -115.325988 
L 598.551918 -113.809659 
L 598.097967 -112.29333 
L 597.693673 -110.777001 
L 597.330168 -109.260672 
L 596.99519 -107.744343 
L 596.674099 -106.228014 
L 596.351093 -104.711685 
L 596.010512 -103.195356 
L 595.638108 -101.679027 
L 595.222193 -100.162698 
L 594.75453 -98.646369 
L 594.230908 -97.13004 
L 593.651348 -95.613711 
L 593.019916 -94.097382 
L 592.344185 -92.581053 
L 591.634389 -91.064724 
L 590.902381 -89.548395 
L 590.160488 -88.032066 
L 589.420393 -86.515737 
L 588.692167 -84.999408 
L 587.983523 -83.483079 
L 587.299377 -81.96675 
L 586.641741 -80.450421 
L 586.009919 -78.934092 
L 585.400986 -77.417763 
L 584.810447 -75.901434 
L 584.233005 -74.385105 
L 583.663327 -72.868776 
L 583.096731 -71.352447 
L 582.52973 -69.836118 
L 581.960382 -68.319789 
L 581.38844 -66.80346 
L 580.815314 -65.287131 
L 580.243873 -63.770802 
L 579.678132 -62.254473 
L 579.12287 -60.738144 
L 578.583238 -59.221815 
L 578.064369 -57.705486 
L 577.571052 -56.189157 
L 577.107463 -54.672828 
z
" style="stroke: #303030; stroke-width: 1.25"/>
    </defs>
    <g clip-path="url(#pebba8a71ec)">
     <use xlink:href="#m0162a68be5" x="0" y="245.496139" style="fill: #c08089; stroke: #303030; stroke-width: 1.25"/>
    </g>
   </g>
   <g id="PolyCollection_6">
    <defs>
     <path id="mf33e327e1c" d="M 680.31827 -46.520031 
L 658.890837 -46.520031 
L 657.817952 -48.11042 
L 656.692538 -49.70081 
L 655.517934 -51.291199 
L 654.298202 -52.881589 
L 653.038156 -54.471978 
L 651.74338 -56.062368 
L 650.420242 -57.652757 
L 649.075882 -59.243147 
L 647.718185 -60.833536 
L 646.355725 -62.423926 
L 644.997685 -64.014315 
L 643.653749 -65.604705 
L 642.333968 -67.195094 
L 641.048599 -68.785484 
L 639.807928 -70.375873 
L 638.622078 -71.966263 
L 637.500808 -73.556652 
L 636.453311 -75.147042 
L 635.488028 -76.737431 
L 634.612467 -78.327821 
L 633.833058 -79.91821 
L 633.155024 -81.5086 
L 632.582294 -83.098989 
L 632.117453 -84.689379 
L 631.761722 -86.279768 
L 631.514986 -87.870158 
L 631.375843 -89.460547 
L 631.341696 -91.050937 
L 631.408865 -92.641326 
L 631.572713 -94.231716 
L 631.827798 -95.822105 
L 632.168016 -97.412495 
L 632.586762 -99.002884 
L 633.07707 -100.593274 
L 633.631753 -102.183663 
L 634.24353 -103.774053 
L 634.905132 -105.364442 
L 635.609395 -106.954832 
L 636.349337 -108.545221 
L 637.118215 -110.135611 
L 637.909566 -111.726 
L 638.717236 -113.31639 
L 639.535395 -114.906779 
L 640.358542 -116.497169 
L 641.181496 -118.087558 
L 641.999388 -119.677948 
L 642.807637 -121.268337 
L 643.601925 -122.858727 
L 644.378167 -124.449116 
L 645.132478 -126.039506 
L 645.861131 -127.629895 
L 646.560522 -129.220285 
L 647.227129 -130.810674 
L 647.85748 -132.401064 
L 648.448116 -133.991453 
L 648.995579 -135.581843 
L 649.496398 -137.172232 
L 649.947106 -138.762622 
L 650.34427 -140.353011 
L 650.684546 -141.943401 
L 650.964772 -143.53379 
L 651.182072 -145.12418 
L 651.334005 -146.714569 
L 651.418722 -148.304959 
L 651.435152 -149.895348 
L 651.383189 -151.485738 
L 651.263888 -153.076127 
L 651.079634 -154.666517 
L 650.834301 -156.256906 
L 650.533356 -157.847296 
L 650.183923 -159.437685 
L 649.794777 -161.028075 
L 649.376267 -162.618464 
L 648.94017 -164.208854 
L 648.499462 -165.799243 
L 648.06802 -167.389633 
L 647.660266 -168.980022 
L 647.290757 -170.570412 
L 646.97375 -172.160801 
L 646.72275 -173.751191 
L 646.55007 -175.34158 
L 646.466428 -176.93197 
L 646.480588 -178.522359 
L 646.599075 -180.112749 
L 646.82597 -181.703138 
L 647.162799 -183.293528 
L 647.608513 -184.883917 
L 648.159572 -186.474307 
L 648.810099 -188.064696 
L 649.552132 -189.655086 
L 650.375918 -191.245475 
L 651.27027 -192.835865 
L 652.222942 -194.426254 
L 653.221017 -196.016644 
L 654.251292 -197.607033 
L 655.300644 -199.197423 
L 656.356353 -200.787812 
L 657.406397 -202.378202 
L 658.43969 -203.968591 
L 680.769417 -203.968591 
L 680.769417 -203.968591 
L 681.80271 -202.378202 
L 682.852755 -200.787812 
L 683.908464 -199.197423 
L 684.957815 -197.607033 
L 685.98809 -196.016644 
L 686.986165 -194.426254 
L 687.938837 -192.835865 
L 688.833189 -191.245475 
L 689.656975 -189.655086 
L 690.399008 -188.064696 
L 691.049535 -186.474307 
L 691.600594 -184.883917 
L 692.046308 -183.293528 
L 692.383137 -181.703138 
L 692.610032 -180.112749 
L 692.728519 -178.522359 
L 692.742679 -176.93197 
L 692.659037 -175.34158 
L 692.486357 -173.751191 
L 692.235357 -172.160801 
L 691.91835 -170.570412 
L 691.548841 -168.980022 
L 691.141087 -167.389633 
L 690.709645 -165.799243 
L 690.268937 -164.208854 
L 689.83284 -162.618464 
L 689.41433 -161.028075 
L 689.025184 -159.437685 
L 688.675751 -157.847296 
L 688.374806 -156.256906 
L 688.129473 -154.666517 
L 687.945219 -153.076127 
L 687.825918 -151.485738 
L 687.773955 -149.895348 
L 687.790385 -148.304959 
L 687.875102 -146.714569 
L 688.027035 -145.12418 
L 688.244335 -143.53379 
L 688.524561 -141.943401 
L 688.864838 -140.353011 
L 689.262001 -138.762622 
L 689.712709 -137.172232 
L 690.213528 -135.581843 
L 690.760991 -133.991453 
L 691.351627 -132.401064 
L 691.981978 -130.810674 
L 692.648586 -129.220285 
L 693.347977 -127.629895 
L 694.076629 -126.039506 
L 694.83094 -124.449116 
L 695.607182 -122.858727 
L 696.40147 -121.268337 
L 697.209719 -119.677948 
L 698.027611 -118.087558 
L 698.850565 -116.497169 
L 699.673712 -114.906779 
L 700.491871 -113.31639 
L 701.299541 -111.726 
L 702.090892 -110.135611 
L 702.85977 -108.545221 
L 703.599712 -106.954832 
L 704.303975 -105.364442 
L 704.965577 -103.774053 
L 705.577354 -102.183663 
L 706.132037 -100.593274 
L 706.622345 -99.002884 
L 707.041091 -97.412495 
L 707.38131 -95.822105 
L 707.636394 -94.231716 
L 707.800242 -92.641326 
L 707.867411 -91.050937 
L 707.833264 -89.460547 
L 707.694121 -87.870158 
L 707.447385 -86.279768 
L 707.091654 -84.689379 
L 706.626813 -83.098989 
L 706.054083 -81.5086 
L 705.376049 -79.91821 
L 704.59664 -78.327821 
L 703.72108 -76.737431 
L 702.755796 -75.147042 
L 701.708299 -73.556652 
L 700.587029 -71.966263 
L 699.401179 -70.375873 
L 698.160509 -68.785484 
L 696.875139 -67.195094 
L 695.555358 -65.604705 
L 694.211422 -64.014315 
L 692.853382 -62.423926 
L 691.490922 -60.833536 
L 690.133225 -59.243147 
L 688.788865 -57.652757 
L 687.465727 -56.062368 
L 686.170952 -54.471978 
L 684.910905 -52.881589 
L 683.691173 -51.291199 
L 682.51657 -49.70081 
L 681.391155 -48.11042 
L 680.31827 -46.520031 
z
" style="stroke: #303030; stroke-width: 1.25"/>
    </defs>
    <g clip-path="url(#pebba8a71ec)">
     <use xlink:href="#mf33e327e1c" x="0" y="245.496139" style="fill: #2f7499; stroke: #303030; stroke-width: 1.25"/>
    </g>
   </g>
   <g id="matplotlib.axis_5">
    <g id="xtick_5">
     <g id="line2d_30">
      <g>
       <use xlink:href="#m8c17fd3755" x="573.947411" y="206.889577" style="stroke: #000000; stroke-width: 0.8"/>
      </g>
     </g>
     <g id="text_21">
      <text style="font: 10px 'Arial'; text-anchor: middle" x="573.947411" y="221.047389" transform="rotate(-0 573.947411 221.047389)">PLP</text>
     </g>
    </g>
    <g id="xtick_6">
     <g id="line2d_31">
      <g>
       <use xlink:href="#m8c17fd3755" x="669.604554" y="206.889577" style="stroke: #000000; stroke-width: 0.8"/>
      </g>
     </g>
     <g id="text_22">
      <text style="font: 10px 'Arial'; text-anchor: middle" x="669.604554" y="221.047389" transform="rotate(-0 669.604554 221.047389)">BLB</text>
     </g>
    </g>
   </g>
   <g id="matplotlib.axis_6">
    <g id="ytick_12">
     <g id="line2d_32">
      <g>
       <use xlink:href="#m514df84add" x="526.118839" y="199.272986" style="stroke: #000000; stroke-width: 0.8"/>
      </g>
     </g>
     <g id="text_23">
      <text style="font: 11px 'Arial'; text-anchor: end" x="519.118839" y="203.209783" transform="rotate(-0 519.118839 203.209783)">0.5</text>
     </g>
    </g>
    <g id="ytick_13">
     <g id="line2d_33">
      <g>
       <use xlink:href="#m514df84add" x="526.118839" y="167.532304" style="stroke: #000000; stroke-width: 0.8"/>
      </g>
     </g>
     <g id="text_24">
      <text style="font: 11px 'Arial'; text-anchor: end" x="519.118839" y="171.469101" transform="rotate(-0 519.118839 171.469101)">0.6</text>
     </g>
    </g>
    <g id="ytick_14">
     <g id="line2d_34">
      <g>
       <use xlink:href="#m514df84add" x="526.118839" y="135.791622" style="stroke: #000000; stroke-width: 0.8"/>
      </g>
     </g>
     <g id="text_25">
      <text style="font: 11px 'Arial'; text-anchor: end" x="519.118839" y="139.728419" transform="rotate(-0 519.118839 139.728419)">0.7</text>
     </g>
    </g>
    <g id="ytick_15">
     <g id="line2d_35">
      <g>
       <use xlink:href="#m514df84add" x="526.118839" y="104.05094" style="stroke: #000000; stroke-width: 0.8"/>
      </g>
     </g>
     <g id="text_26">
      <text style="font: 11px 'Arial'; text-anchor: end" x="519.118839" y="107.987737" transform="rotate(-0 519.118839 107.987737)">0.8</text>
     </g>
    </g>
    <g id="ytick_16">
     <g id="line2d_36">
      <g>
       <use xlink:href="#m514df84add" x="526.118839" y="72.310259" style="stroke: #000000; stroke-width: 0.8"/>
      </g>
     </g>
     <g id="text_27">
      <text style="font: 11px 'Arial'; text-anchor: end" x="519.118839" y="76.247055" transform="rotate(-0 519.118839 76.247055)">0.9</text>
     </g>
    </g>
    <g id="ytick_17">
     <g id="line2d_37">
      <g>
       <use xlink:href="#m514df84add" x="526.118839" y="40.569577" style="stroke: #000000; stroke-width: 0.8"/>
      </g>
     </g>
     <g id="text_28">
      <text style="font: 11px 'Arial'; text-anchor: end" x="519.118839" y="44.506374" transform="rotate(-0 519.118839 44.506374)">1.0</text>
     </g>
    </g>
    <g id="text_29">
     <text style="font: 12px 'Arial'; text-anchor: middle" x="497.303214" y="123.729577" transform="rotate(-90 497.303214 123.729577)">Imaging Phenotype Score</text>
    </g>
   </g>
   <g id="line2d_38">
    <path d="M 573.947411 190.823311 
L 573.947411 40.706741 
" clip-path="url(#pebba8a71ec)" style="fill: none; stroke: #303030; stroke-width: 1.875; stroke-linecap: square"/>
   </g>
   <g id="line2d_39">
    <path d="M 573.947411 124.27042 
L 573.947411 65.558546 
" clip-path="url(#pebba8a71ec)" style="fill: none; stroke: #303030; stroke-width: 5.625; stroke-linecap: square"/>
   </g>
   <g id="line2d_40">
    <path d="M 573.947411 93.671429 
" clip-path="url(#pebba8a71ec)" style="fill: none; stroke: #303030; stroke-width: 1.5; stroke-linecap: square"/>
    <g clip-path="url(#pebba8a71ec)">
     <use xlink:href="#mcc471607c7" x="573.947411" y="93.671429" style="fill: #ffffff; stroke: #ffffff; stroke-width: 1.125"/>
    </g>
   </g>
   <g id="line2d_41">
    <path d="M 669.604554 198.976108 
L 669.604554 41.527548 
" clip-path="url(#pebba8a71ec)" style="fill: none; stroke: #303030; stroke-width: 1.875; stroke-linecap: square"/>
   </g>
   <g id="line2d_42">
    <path d="M 669.604554 159.335649 
L 669.604554 86.895904 
" clip-path="url(#pebba8a71ec)" style="fill: none; stroke: #303030; stroke-width: 5.625; stroke-linecap: square"/>
   </g>
   <g id="line2d_43">
    <path d="M 669.604554 137.364791 
" clip-path="url(#pebba8a71ec)" style="fill: none; stroke: #303030; stroke-width: 1.5; stroke-linecap: square"/>
    <g clip-path="url(#pebba8a71ec)">
     <use xlink:href="#mcc471607c7" x="669.604554" y="137.364791" style="fill: #ffffff; stroke: #ffffff; stroke-width: 1.125"/>
    </g>
   </g>
   <g id="line2d_44">
    <path d="M 573.947411 32.001926 
L 573.947411 28.52 
L 669.604554 28.52 
L 669.604554 32.001926 
" style="fill: none; stroke: #333333; stroke-width: 1.5; stroke-linecap: square"/>
   </g>
   <g id="patch_9">
    <path d="M 526.118839 206.889577 
L 526.118839 40.569577 
" style="fill: none; stroke: #000000; stroke-width: 0.8; stroke-linejoin: miter; stroke-linecap: square"/>
   </g>
   <g id="patch_10">
    <path d="M 526.118839 206.889577 
L 717.433125 206.889577 
" style="fill: none; stroke: #000000; stroke-width: 0.8; stroke-linejoin: miter; stroke-linecap: square"/>
   </g>
   <g id="text_30">
    <!-- p=1.8×10$^{-10}$ -->
    <g transform="translate(587.275982 18.12)">
     <text>
      <tspan style="font: 12px 'Arial'" x="0 6.673828 13.681641 20.355469 23.689453 30.363281 37.371094 44.044922" y="-0.171875">p=1.8×10</tspan>
      <tspan style="font: 8.4px 'DejaVu Sans'" x="50.833594 57.871875 63.216211" y="-4.765625">−10</tspan>
     </text>
    </g>
   </g>
  </g>
 </g>
 <defs>
  <clipPath id="pe18c9afc09">
   <rect x="47.833125" y="40.569577" width="191.314286" height="166.32"/>
  </clipPath>
  <clipPath id="pb0359ca3bb">
   <rect x="286.975982" y="40.569577" width="191.314286" height="166.32"/>
  </clipPath>
  <clipPath id="pebba8a71ec">
   <rect x="526.118839" y="40.569577" width="191.314286" height="166.32"/>
  </clipPath>
 </defs>
</svg>
