<?xml version="1.0" encoding="utf-8" standalone="no"?>
<!DOCTYPE svg PUBLIC "-//W3C//DTD SVG 1.1//EN"
  "http://www.w3.org/Graphics/SVG/1.1/DTD/svg11.dtd">
<svg xmlns:xlink="http://www.w3.org/1999/xlink" width="636.040756pt" height="276.695391pt" viewBox="0 0 636.040756 276.695391" xmlns="http://www.w3.org/2000/svg" version="1.1">
 <metadata>
  <rdf:RDF xmlns:dc="http://purl.org/dc/elements/1.1/" xmlns:cc="http://creativecommons.org/ns#" xmlns:rdf="http://www.w3.org/1999/02/22-rdf-syntax-ns#">
   <cc:Work>
    <dc:type rdf:resource="http://purl.org/dc/dcmitype/StillImage"/>
    <dc:date>2026-01-08T17:49:51.512679</dc:date>
    <dc:format>image/svg+xml</dc:format>
    <dc:creator>
     <cc:Agent>
      <dc:title>Matplotlib v3.7.5, https://matplotlib.org/</dc:title>
     </cc:Agent>
    </dc:creator>
   </cc:Work>
  </rdf:RDF>
 </metadata>
 <defs>
  <style type="text/css">*{stroke-linejoin: round; stroke-linecap: butt}</style>
 </defs>
 <g id="figure_1">
  <g id="patch_1">
   <path d="M 0 276.695391 
L 636.040756 276.695391 
L 636.040756 0 
L 0 0 
L 0 276.695391 
z
" style="fill: none"/>
  </g>
  <g id="axes_1">
   <g id="patch_2">
    <path d="M 44.605 237.320547 
L 303.120416 237.320547 
L 303.120416 11.136797 
L 44.605 11.136797 
L 44.605 237.320547 
z
" style="fill: none"/>
   </g>
   <g id="PathCollection_1">
    <defs>
     <path id="C0_0_c96ea8023c" d="M 0 3.535534 
C 0.937635 3.535534 1.836992 3.163008 2.5 2.5 
C 3.163008 1.836992 3.535534 0.937635 3.535534 -0 
C 3.535534 -0.937635 3.163008 -1.836992 2.5 -2.5 
C 1.836992 -3.163008 0.937635 -3.535534 0 -3.535534 
C -0.937635 -3.535534 -1.836992 -3.163008 -2.5 -2.5 
C -3.163008 -1.836992 -3.535534 -0.937635 -3.535534 0 
C -3.535534 0.937635 -3.163008 1.836992 -2.5 2.5 
C -1.836992 3.163008 -0.937635 3.535534 0 3.535534 
z
"/>
    </defs>
    <g clip-path="url(#p3a363df24a)">
     <use xlink:href="#C0_0_c96ea8023c" x="180.012409" y="87.97983" style="fill: #ca7682; stroke: #ffffff; stroke-width: 0.565685"/>
    </g>
    <g clip-path="url(#p3a363df24a)">
     <use xlink:href="#C0_0_c96ea8023c" x="240.300867" y="219.707435" style="fill: #ca7682; stroke: #ffffff; stroke-width: 0.565685"/>
    </g>
    <g clip-path="url(#p3a363df24a)">
     <use xlink:href="#C0_0_c96ea8023c" x="163.09669" y="70.092282" style="fill: #ca7682; stroke: #ffffff; stroke-width: 0.565685"/>
    </g>
    <g clip-path="url(#p3a363df24a)">
     <use xlink:href="#C0_0_c96ea8023c" x="170.945977" y="80.870702" style="fill: #ca7682; stroke: #ffffff; stroke-width: 0.565685"/>
    </g>
    <g clip-path="url(#p3a363df24a)">
     <use xlink:href="#C0_0_c96ea8023c" x="280.361447" y="216.012204" style="fill: #ca7682; stroke: #ffffff; stroke-width: 0.565685"/>
    </g>
    <g clip-path="url(#p3a363df24a)">
     <use xlink:href="#C0_0_c96ea8023c" x="167.532899" y="58.973769" style="fill: #ca7682; stroke: #ffffff; stroke-width: 0.565685"/>
    </g>
    <g clip-path="url(#p3a363df24a)">
     <use xlink:href="#C0_0_c96ea8023c" x="128.942482" y="95.764921" style="fill: #ca7682; stroke: #ffffff; stroke-width: 0.565685"/>
    </g>
    <g clip-path="url(#p3a363df24a)">
     <use xlink:href="#C0_0_c96ea8023c" x="116.921884" y="78.09326" style="fill: #ca7682; stroke: #ffffff; stroke-width: 0.565685"/>
    </g>
    <g clip-path="url(#p3a363df24a)">
     <use xlink:href="#C0_0_c96ea8023c" x="74.980691" y="99.708426" style="fill: #ca7682; stroke: #ffffff; stroke-width: 0.565685"/>
    </g>
    <g clip-path="url(#p3a363df24a)">
     <use xlink:href="#C0_0_c96ea8023c" x="268.451679" y="208.727685" style="fill: #ca7682; stroke: #ffffff; stroke-width: 0.565685"/>
    </g>
    <g clip-path="url(#p3a363df24a)">
     <use xlink:href="#C0_0_c96ea8023c" x="149.200897" y="50.672242" style="fill: #ca7682; stroke: #ffffff; stroke-width: 0.565685"/>
    </g>
    <g clip-path="url(#p3a363df24a)">
     <use xlink:href="#C0_0_c96ea8023c" x="223.788817" y="42.258031" style="fill: #ca7682; stroke: #ffffff; stroke-width: 0.565685"/>
    </g>
    <g clip-path="url(#p3a363df24a)">
     <use xlink:href="#C0_0_c96ea8023c" x="140.326659" y="57.348858" style="fill: #ca7682; stroke: #ffffff; stroke-width: 0.565685"/>
    </g>
    <g clip-path="url(#p3a363df24a)">
     <use xlink:href="#C0_0_c96ea8023c" x="204.346046" y="168.523288" style="fill: #ca7682; stroke: #ffffff; stroke-width: 0.565685"/>
    </g>
    <g clip-path="url(#p3a363df24a)">
     <use xlink:href="#C0_0_c96ea8023c" x="268.836621" y="225.496744" style="fill: #ca7682; stroke: #ffffff; stroke-width: 0.565685"/>
    </g>
    <g clip-path="url(#p3a363df24a)">
     <use xlink:href="#C0_0_c96ea8023c" x="289.278485" y="217.614077" style="fill: #ca7682; stroke: #ffffff; stroke-width: 0.565685"/>
    </g>
    <g clip-path="url(#p3a363df24a)">
     <use xlink:href="#C0_0_c96ea8023c" x="248.334196" y="219.220376" style="fill: #ca7682; stroke: #ffffff; stroke-width: 0.565685"/>
    </g>
    <g clip-path="url(#p3a363df24a)">
     <use xlink:href="#C0_0_c96ea8023c" x="151.448967" y="93.061045" style="fill: #ca7682; stroke: #ffffff; stroke-width: 0.565685"/>
    </g>
    <g clip-path="url(#p3a363df24a)">
     <use xlink:href="#C0_0_c96ea8023c" x="93.245676" y="51.328159" style="fill: #ca7682; stroke: #ffffff; stroke-width: 0.565685"/>
    </g>
    <g clip-path="url(#p3a363df24a)">
     <use xlink:href="#C0_0_c96ea8023c" x="85.706879" y="79.441569" style="fill: #ca7682; stroke: #ffffff; stroke-width: 0.565685"/>
    </g>
    <g clip-path="url(#p3a363df24a)">
     <use xlink:href="#C0_0_c96ea8023c" x="234.77533" y="216.836144" style="fill: #ca7682; stroke: #ffffff; stroke-width: 0.565685"/>
    </g>
    <g clip-path="url(#p3a363df24a)">
     <use xlink:href="#C0_0_c96ea8023c" x="288.195151" y="222.637594" style="fill: #ca7682; stroke: #ffffff; stroke-width: 0.565685"/>
    </g>
    <g clip-path="url(#p3a363df24a)">
     <use xlink:href="#C0_0_c96ea8023c" x="58.098979" y="74.486995" style="fill: #ca7682; stroke: #ffffff; stroke-width: 0.565685"/>
    </g>
    <g clip-path="url(#p3a363df24a)">
     <use xlink:href="#C0_0_c96ea8023c" x="241.021213" y="58.242537" style="fill: #ca7682; stroke: #ffffff; stroke-width: 0.565685"/>
    </g>
    <g clip-path="url(#p3a363df24a)">
     <use xlink:href="#C0_0_c96ea8023c" x="86.846118" y="75.652839" style="fill: #ca7682; stroke: #ffffff; stroke-width: 0.565685"/>
    </g>
    <g clip-path="url(#p3a363df24a)">
     <use xlink:href="#C0_0_c96ea8023c" x="278.830598" y="218.373951" style="fill: #ca7682; stroke: #ffffff; stroke-width: 0.565685"/>
    </g>
    <g clip-path="url(#p3a363df24a)">
     <use xlink:href="#C0_0_c96ea8023c" x="236.229339" y="210.332579" style="fill: #ca7682; stroke: #ffffff; stroke-width: 0.565685"/>
    </g>
    <g clip-path="url(#p3a363df24a)">
     <use xlink:href="#C0_0_c96ea8023c" x="241.807523" y="113.841115" style="fill: #a0a0a0; stroke: #ffffff; stroke-width: 0.565685"/>
    </g>
    <g clip-path="url(#p3a363df24a)">
     <use xlink:href="#C0_0_c96ea8023c" x="277.424987" y="222.496842" style="fill: #a0a0a0; stroke: #ffffff; stroke-width: 0.565685"/>
    </g>
    <g clip-path="url(#p3a363df24a)">
     <use xlink:href="#C0_0_c96ea8023c" x="279.859228" y="215.021466" style="fill: #a0a0a0; stroke: #ffffff; stroke-width: 0.565685"/>
    </g>
    <g clip-path="url(#p3a363df24a)">
     <use xlink:href="#C0_0_c96ea8023c" x="96.554607" y="66.175662" style="fill: #a0a0a0; stroke: #ffffff; stroke-width: 0.565685"/>
    </g>
    <g clip-path="url(#p3a363df24a)">
     <use xlink:href="#C0_0_c96ea8023c" x="135.035606" y="132.811552" style="fill: #a0a0a0; stroke: #ffffff; stroke-width: 0.565685"/>
    </g>
    <g clip-path="url(#p3a363df24a)">
     <use xlink:href="#C0_0_c96ea8023c" x="285.634965" y="217.583191" style="fill: #a0a0a0; stroke: #ffffff; stroke-width: 0.565685"/>
    </g>
    <g clip-path="url(#p3a363df24a)">
     <use xlink:href="#C0_0_c96ea8023c" x="169.973995" y="80.154686" style="fill: #a0a0a0; stroke: #ffffff; stroke-width: 0.565685"/>
    </g>
    <g clip-path="url(#p3a363df24a)">
     <use xlink:href="#C0_0_c96ea8023c" x="260.492847" y="225.866653" style="fill: #a0a0a0; stroke: #ffffff; stroke-width: 0.565685"/>
    </g>
    <g clip-path="url(#p3a363df24a)">
     <use xlink:href="#C0_0_c96ea8023c" x="84.478127" y="94.381715" style="fill: #1d7aab; stroke: #ffffff; stroke-width: 0.565685"/>
    </g>
    <g clip-path="url(#p3a363df24a)">
     <use xlink:href="#C0_0_c96ea8023c" x="123.144164" y="72.087313" style="fill: #1d7aab; stroke: #ffffff; stroke-width: 0.565685"/>
    </g>
    <g clip-path="url(#p3a363df24a)">
     <use xlink:href="#C0_0_c96ea8023c" x="163.208191" y="73.646516" style="fill: #1d7aab; stroke: #ffffff; stroke-width: 0.565685"/>
    </g>
    <g clip-path="url(#p3a363df24a)">
     <use xlink:href="#C0_0_c96ea8023c" x="144.152117" y="72.781405" style="fill: #1d7aab; stroke: #ffffff; stroke-width: 0.565685"/>
    </g>
    <g clip-path="url(#p3a363df24a)">
     <use xlink:href="#C0_0_c96ea8023c" x="95.325416" y="67.806537" style="fill: #1d7aab; stroke: #ffffff; stroke-width: 0.565685"/>
    </g>
    <g clip-path="url(#p3a363df24a)">
     <use xlink:href="#C0_0_c96ea8023c" x="140.766393" y="68.182728" style="fill: #a0a0a0; stroke: #ffffff; stroke-width: 0.565685"/>
    </g>
    <g clip-path="url(#p3a363df24a)">
     <use xlink:href="#C0_0_c96ea8023c" x="100.239092" y="61.734131" style="fill: #a0a0a0; stroke: #ffffff; stroke-width: 0.565685"/>
    </g>
    <g clip-path="url(#p3a363df24a)">
     <use xlink:href="#C0_0_c96ea8023c" x="58.942553" y="63.66203" style="fill: #a0a0a0; stroke: #ffffff; stroke-width: 0.565685"/>
    </g>
    <g clip-path="url(#p3a363df24a)">
     <use xlink:href="#C0_0_c96ea8023c" x="120.370673" y="65.782352" style="fill: #a0a0a0; stroke: #ffffff; stroke-width: 0.565685"/>
    </g>
    <g clip-path="url(#p3a363df24a)">
     <use xlink:href="#C0_0_c96ea8023c" x="131.734129" y="74.541034" style="fill: #a0a0a0; stroke: #ffffff; stroke-width: 0.565685"/>
    </g>
    <g clip-path="url(#p3a363df24a)">
     <use xlink:href="#C0_0_c96ea8023c" x="120.902604" y="65.277398" style="fill: #a0a0a0; stroke: #ffffff; stroke-width: 0.565685"/>
    </g>
    <g clip-path="url(#p3a363df24a)">
     <use xlink:href="#C0_0_c96ea8023c" x="200.005113" y="86.694718" style="fill: #a0a0a0; stroke: #ffffff; stroke-width: 0.565685"/>
    </g>
    <g clip-path="url(#p3a363df24a)">
     <use xlink:href="#C0_0_c96ea8023c" x="123.662469" y="122.722895" style="fill: #a0a0a0; stroke: #ffffff; stroke-width: 0.565685"/>
    </g>
    <g clip-path="url(#p3a363df24a)">
     <use xlink:href="#C0_0_c96ea8023c" x="216.82161" y="117.220241" style="fill: #a0a0a0; stroke: #ffffff; stroke-width: 0.565685"/>
    </g>
    <g clip-path="url(#p3a363df24a)">
     <use xlink:href="#C0_0_c96ea8023c" x="130.203433" y="101.785336" style="fill: #a0a0a0; stroke: #ffffff; stroke-width: 0.565685"/>
    </g>
   </g>
   <g id="PolyCollection_1">
    <path d="M 58.098979 13.885781 
L 58.098979 47.25609 
L 60.434125 48.679152 
L 62.769272 50.17537 
L 65.104418 51.672889 
L 67.439565 53.170408 
L 69.774711 54.667927 
L 72.109858 56.165886 
L 74.445004 57.660775 
L 76.780151 59.155931 
L 79.115297 60.657151 
L 81.450444 62.150963 
L 83.785591 63.676016 
L 86.120737 65.41739 
L 88.455884 66.828618 
L 90.79103 68.409882 
L 93.126177 70.068791 
L 95.461323 71.660616 
L 97.79647 73.156452 
L 100.131616 74.741163 
L 102.466763 76.335089 
L 104.801909 77.976998 
L 107.137056 79.675712 
L 109.472202 81.350186 
L 111.807349 83.0207 
L 114.142495 84.550786 
L 116.477642 86.203003 
L 118.812788 87.791444 
L 121.147935 89.494195 
L 123.483082 91.196889 
L 125.818228 92.763535 
L 128.153375 94.346734 
L 130.488521 96.115201 
L 132.823668 97.813473 
L 135.158814 99.654349 
L 137.493961 101.347703 
L 139.829107 103.040966 
L 142.164254 104.776346 
L 144.4994 106.452435 
L 146.834547 108.128525 
L 149.169693 109.812541 
L 151.50484 111.506367 
L 153.839986 113.200192 
L 156.175133 114.890966 
L 158.51028 116.648865 
L 160.845426 118.493349 
L 163.180573 120.304168 
L 165.515719 122.047122 
L 167.850866 123.891254 
L 170.186012 125.777137 
L 172.521159 127.610499 
L 174.856305 129.528742 
L 177.191452 131.262441 
L 179.526598 133.103268 
L 181.861745 134.947287 
L 184.196891 136.695874 
L 186.532038 138.482044 
L 188.867184 140.356037 
L 191.202331 142.207391 
L 193.537477 144.019798 
L 195.872624 145.820657 
L 198.207771 147.617755 
L 200.542917 149.453483 
L 202.878064 151.191804 
L 205.21321 152.955472 
L 207.548357 154.73619 
L 209.883503 156.608572 
L 212.21865 158.464574 
L 214.553796 160.494922 
L 216.888943 162.381024 
L 219.224089 164.127086 
L 221.559236 166.173838 
L 223.894382 168.0957 
L 226.229529 169.971317 
L 228.564675 171.816594 
L 230.899822 173.711535 
L 233.234968 175.629934 
L 235.570115 177.613469 
L 237.905262 179.62971 
L 240.240408 181.54235 
L 242.575555 183.509437 
L 244.910701 185.657524 
L 247.245848 187.705818 
L 249.580994 189.675202 
L 251.916141 191.575232 
L 254.251287 193.638218 
L 256.586434 195.658442 
L 258.92158 197.583001 
L 261.256727 199.505067 
L 263.591873 201.427132 
L 265.92702 203.349198 
L 268.262166 205.263647 
L 270.597313 207.195344 
L 272.93246 209.17776 
L 275.267606 211.198767 
L 277.602753 213.12611 
L 279.937899 215.228043 
L 282.273046 217.199973 
L 284.608192 218.950128 
L 286.943339 220.916001 
L 289.278485 222.911723 
L 289.278485 179.243088 
L 289.278485 179.243088 
L 286.943339 177.886331 
L 284.608192 176.529574 
L 282.273046 175.172817 
L 279.937899 173.802398 
L 277.602753 172.411928 
L 275.267606 171.017119 
L 272.93246 169.569138 
L 270.597313 168.123417 
L 268.262166 166.677695 
L 265.92702 165.251326 
L 263.591873 163.832633 
L 261.256727 162.329043 
L 258.92158 160.876445 
L 256.586434 159.424847 
L 254.251287 157.982464 
L 251.916141 156.562219 
L 249.580994 155.072753 
L 247.245848 153.537414 
L 244.910701 152.167379 
L 242.575555 150.714691 
L 240.240408 149.263608 
L 237.905262 147.813533 
L 235.570115 146.363458 
L 233.234968 144.913383 
L 230.899822 143.463308 
L 228.564675 142.011822 
L 226.229529 140.545434 
L 223.894382 139.107968 
L 221.559236 137.658789 
L 219.224089 136.294101 
L 216.888943 134.865463 
L 214.553796 133.450871 
L 212.21865 132.055354 
L 209.883503 130.537452 
L 207.548357 129.113805 
L 205.21321 127.780922 
L 202.878064 126.370311 
L 200.542917 124.857136 
L 198.207771 123.429855 
L 195.872624 122.053681 
L 193.537477 120.562989 
L 191.202331 118.825032 
L 188.867184 117.397295 
L 186.532038 115.984592 
L 184.196891 114.474729 
L 181.861745 113.0029 
L 179.526598 111.536395 
L 177.191452 109.901374 
L 174.856305 108.230469 
L 172.521159 106.651511 
L 170.186012 105.028028 
L 167.850866 103.350279 
L 165.515719 101.564074 
L 163.180573 99.869675 
L 160.845426 97.934001 
L 158.51028 96.079099 
L 156.175133 94.495736 
L 153.839986 92.714325 
L 151.50484 90.894658 
L 149.169693 89.082883 
L 146.834547 87.266938 
L 144.4994 85.358007 
L 142.164254 83.501317 
L 139.829107 81.565256 
L 137.493961 79.666045 
L 135.158814 77.714855 
L 132.823668 75.698619 
L 130.488521 73.736661 
L 128.153375 71.832529 
L 125.818228 69.902619 
L 123.483082 68.114019 
L 121.147935 66.329558 
L 118.812788 64.479078 
L 116.477642 62.787758 
L 114.142495 60.778117 
L 111.807349 58.927637 
L 109.472202 57.074132 
L 107.137056 55.03937 
L 104.801909 53.24562 
L 102.466763 51.4422 
L 100.131616 49.536222 
L 97.79647 47.568408 
L 95.461323 45.712266 
L 93.126177 43.567541 
L 90.79103 41.378846 
L 88.455884 39.425368 
L 86.120737 37.471972 
L 83.785591 35.518576 
L 81.450444 33.568606 
L 79.115297 31.618694 
L 76.780151 29.533254 
L 74.445004 27.406859 
L 72.109858 25.470751 
L 69.774711 23.539449 
L 67.439565 21.608148 
L 65.104418 19.676846 
L 62.769272 17.745545 
L 60.434125 15.772757 
L 58.098979 13.885781 
z
" clip-path="url(#p3a363df24a)" style="fill-opacity: 0.15"/>
   </g>
   <g id="matplotlib.axis_1">
    <g id="xtick_1">
     <g id="line2d_1">
      <defs>
       <path id="m57a14c7628" d="M 0 0 
L 0 3.5 
" style="stroke: #000000; stroke-width: 0.8"/>
      </defs>
      <g>
       <use xlink:href="#m57a14c7628" x="44.605" y="237.320547" style="stroke: #000000; stroke-width: 0.8"/>
      </g>
     </g>
     <g id="text_1">
      <text style="font: 11px 'Arial'; text-anchor: middle" x="44.605" y="252.194141" transform="rotate(-0 44.605 252.194141)">0.5</text>
     </g>
    </g>
    <g id="xtick_2">
     <g id="line2d_2">
      <g>
       <use xlink:href="#m57a14c7628" x="95.294297" y="237.320547" style="stroke: #000000; stroke-width: 0.8"/>
      </g>
     </g>
     <g id="text_2">
      <text style="font: 11px 'Arial'; text-anchor: middle" x="95.294297" y="252.194141" transform="rotate(-0 95.294297 252.194141)">0.6</text>
     </g>
    </g>
    <g id="xtick_3">
     <g id="line2d_3">
      <g>
       <use xlink:href="#m57a14c7628" x="145.983594" y="237.320547" style="stroke: #000000; stroke-width: 0.8"/>
      </g>
     </g>
     <g id="text_3">
      <text style="font: 11px 'Arial'; text-anchor: middle" x="145.983594" y="252.194141" transform="rotate(-0 145.983594 252.194141)">0.7</text>
     </g>
    </g>
    <g id="xtick_4">
     <g id="line2d_4">
      <g>
       <use xlink:href="#m57a14c7628" x="196.672892" y="237.320547" style="stroke: #000000; stroke-width: 0.8"/>
      </g>
     </g>
     <g id="text_4">
      <text style="font: 11px 'Arial'; text-anchor: middle" x="196.672892" y="252.194141" transform="rotate(-0 196.672892 252.194141)">0.8</text>
     </g>
    </g>
    <g id="xtick_5">
     <g id="line2d_5">
      <g>
       <use xlink:href="#m57a14c7628" x="247.362189" y="237.320547" style="stroke: #000000; stroke-width: 0.8"/>
      </g>
     </g>
     <g id="text_5">
      <text style="font: 11px 'Arial'; text-anchor: middle" x="247.362189" y="252.194141" transform="rotate(-0 247.362189 252.194141)">0.9</text>
     </g>
    </g>
    <g id="xtick_6">
     <g id="line2d_6">
      <g>
       <use xlink:href="#m57a14c7628" x="298.051486" y="237.320547" style="stroke: #000000; stroke-width: 0.8"/>
      </g>
     </g>
     <g id="text_6">
      <text style="font: 11px 'Arial'; text-anchor: middle" x="298.051486" y="252.194141" transform="rotate(-0 298.051486 252.194141)">1.0</text>
     </g>
    </g>
    <g id="text_7">
     <text style="font: 12px 'Arial'; text-anchor: middle" x="173.862708" y="266.969766" transform="rotate(-0 173.862708 266.969766)">Imaging phenotype score</text>
    </g>
   </g>
   <g id="matplotlib.axis_2">
    <g id="ytick_1">
     <g id="line2d_7">
      <defs>
       <path id="ma6a8293849" d="M 0 0 
L -3.5 0 
" style="stroke: #000000; stroke-width: 0.8"/>
      </defs>
      <g>
       <use xlink:href="#ma6a8293849" x="44.605" y="225.094398" style="stroke: #000000; stroke-width: 0.8"/>
      </g>
     </g>
     <g id="text_8">
      <text style="font: 11px 'Arial'; text-anchor: end" x="37.605" y="229.031195" transform="rotate(-0 37.605 229.031195)">0.0</text>
     </g>
    </g>
    <g id="ytick_2">
     <g id="line2d_8">
      <g>
       <use xlink:href="#ma6a8293849" x="44.605" y="194.529027" style="stroke: #000000; stroke-width: 0.8"/>
      </g>
     </g>
     <g id="text_9">
      <text style="font: 11px 'Arial'; text-anchor: end" x="37.605" y="198.465823" transform="rotate(-0 37.605 198.465823)">0.2</text>
     </g>
    </g>
    <g id="ytick_3">
     <g id="line2d_9">
      <g>
       <use xlink:href="#ma6a8293849" x="44.605" y="163.963655" style="stroke: #000000; stroke-width: 0.8"/>
      </g>
     </g>
     <g id="text_10">
      <text style="font: 11px 'Arial'; text-anchor: end" x="37.605" y="167.900452" transform="rotate(-0 37.605 167.900452)">0.4</text>
     </g>
    </g>
    <g id="ytick_4">
     <g id="line2d_10">
      <g>
       <use xlink:href="#ma6a8293849" x="44.605" y="133.398283" style="stroke: #000000; stroke-width: 0.8"/>
      </g>
     </g>
     <g id="text_11">
      <text style="font: 11px 'Arial'; text-anchor: end" x="37.605" y="137.33508" transform="rotate(-0 37.605 137.33508)">0.6</text>
     </g>
    </g>
    <g id="ytick_5">
     <g id="line2d_11">
      <g>
       <use xlink:href="#ma6a8293849" x="44.605" y="102.832912" style="stroke: #000000; stroke-width: 0.8"/>
      </g>
     </g>
     <g id="text_12">
      <text style="font: 11px 'Arial'; text-anchor: end" x="37.605" y="106.769709" transform="rotate(-0 37.605 106.769709)">0.8</text>
     </g>
    </g>
    <g id="ytick_6">
     <g id="line2d_12">
      <g>
       <use xlink:href="#ma6a8293849" x="44.605" y="72.26754" style="stroke: #000000; stroke-width: 0.8"/>
      </g>
     </g>
     <g id="text_13">
      <text style="font: 11px 'Arial'; text-anchor: end" x="37.605" y="76.204337" transform="rotate(-0 37.605 76.204337)">1.0</text>
     </g>
    </g>
    <g id="ytick_7">
     <g id="line2d_13">
      <g>
       <use xlink:href="#ma6a8293849" x="44.605" y="41.702168" style="stroke: #000000; stroke-width: 0.8"/>
      </g>
     </g>
     <g id="text_14">
      <text style="font: 11px 'Arial'; text-anchor: end" x="37.605" y="45.638965" transform="rotate(-0 37.605 45.638965)">1.2</text>
     </g>
    </g>
    <g id="ytick_8">
     <g id="line2d_14">
      <g>
       <use xlink:href="#ma6a8293849" x="44.605" y="11.136797" style="stroke: #000000; stroke-width: 0.8"/>
      </g>
     </g>
     <g id="text_15">
      <text style="font: 11px 'Arial'; text-anchor: end" x="37.605" y="15.073594" transform="rotate(-0 37.605 15.073594)">1.4</text>
     </g>
    </g>
    <g id="text_16">
     <text style="font: 12px 'Arial'; text-anchor: middle" x="15.789375" y="124.228672" transform="rotate(-90 15.789375 124.228672)">Heavy chain secretion score</text>
    </g>
   </g>
   <g id="line2d_15"/>
   <g id="line2d_16"/>
   <g id="line2d_17"/>
   <g id="line2d_18">
    <path d="M 58.098979 33.167978 
L 60.434125 34.888259 
L 62.769272 36.60854 
L 65.104418 38.328821 
L 67.439565 40.049102 
L 69.774711 41.769383 
L 72.109858 43.489664 
L 74.445004 45.209945 
L 76.780151 46.930226 
L 79.115297 48.650507 
L 81.450444 50.370788 
L 83.785591 52.091069 
L 86.120737 53.81135 
L 88.455884 55.531631 
L 90.79103 57.251912 
L 93.126177 58.972192 
L 95.461323 60.692473 
L 97.79647 62.412754 
L 100.131616 64.133035 
L 102.466763 65.853316 
L 104.801909 67.573597 
L 107.137056 69.293878 
L 109.472202 71.014159 
L 111.807349 72.73444 
L 114.142495 74.454721 
L 116.477642 76.175002 
L 118.812788 77.895283 
L 121.147935 79.615564 
L 123.483082 81.335845 
L 125.818228 83.056126 
L 128.153375 84.776407 
L 130.488521 86.496688 
L 132.823668 88.216969 
L 135.158814 89.93725 
L 137.493961 91.657531 
L 139.829107 93.377811 
L 142.164254 95.098092 
L 144.4994 96.818373 
L 146.834547 98.538654 
L 149.169693 100.258935 
L 151.50484 101.979216 
L 153.839986 103.699497 
L 156.175133 105.419778 
L 158.51028 107.140059 
L 160.845426 108.86034 
L 163.180573 110.580621 
L 165.515719 112.300902 
L 167.850866 114.021183 
L 170.186012 115.741464 
L 172.521159 117.461745 
L 174.856305 119.182026 
L 177.191452 120.902307 
L 179.526598 122.622588 
L 181.861745 124.342869 
L 184.196891 126.06315 
L 186.532038 127.78343 
L 188.867184 129.503711 
L 191.202331 131.223992 
L 193.537477 132.944273 
L 195.872624 134.664554 
L 198.207771 136.384835 
L 200.542917 138.105116 
L 202.878064 139.825397 
L 205.21321 141.545678 
L 207.548357 143.265959 
L 209.883503 144.98624 
L 212.21865 146.706521 
L 214.553796 148.426802 
L 216.888943 150.147083 
L 219.224089 151.867364 
L 221.559236 153.587645 
L 223.894382 155.307926 
L 226.229529 157.028207 
L 228.564675 158.748488 
L 230.899822 160.468769 
L 233.234968 162.189049 
L 235.570115 163.90933 
L 237.905262 165.629611 
L 240.240408 167.349892 
L 242.575555 169.070173 
L 244.910701 170.790454 
L 247.245848 172.510735 
L 249.580994 174.231016 
L 251.916141 175.951297 
L 254.251287 177.671578 
L 256.586434 179.391859 
L 258.92158 181.11214 
L 261.256727 182.832421 
L 263.591873 184.552702 
L 265.92702 186.272983 
L 268.262166 187.993264 
L 270.597313 189.713545 
L 272.93246 191.433826 
L 275.267606 193.154107 
L 277.602753 194.874387 
L 279.937899 196.594668 
L 282.273046 198.314949 
L 284.608192 200.03523 
L 286.943339 201.755511 
L 289.278485 203.475792 
" clip-path="url(#p3a363df24a)" style="fill: none; stroke: #000000; stroke-width: 2.25; stroke-linecap: square"/>
   </g>
   <g id="patch_3">
    <path d="M 44.605 237.320547 
L 44.605 11.136797 
" style="fill: none; stroke: #000000; stroke-width: 0.8; stroke-linejoin: miter; stroke-linecap: square"/>
   </g>
   <g id="patch_4">
    <path d="M 303.120416 237.320547 
L 303.120416 11.136797 
" style="fill: none; stroke: #000000; stroke-width: 0.8; stroke-linejoin: miter; stroke-linecap: square"/>
   </g>
   <g id="patch_5">
    <path d="M 44.605 237.320547 
L 303.120416 237.320547 
" style="fill: none; stroke: #000000; stroke-width: 0.8; stroke-linejoin: miter; stroke-linecap: square"/>
   </g>
   <g id="patch_6">
    <path d="M 44.605 11.136797 
L 303.120416 11.136797 
" style="fill: none; stroke: #000000; stroke-width: 0.8; stroke-linejoin: miter; stroke-linecap: square"/>
   </g>
   <g id="text_17">
    <text style="font: 10px 'Arial'; text-anchor: middle" x="181.176248" y="83.533009" transform="rotate(-0 181.176248 83.533009)">Glu73Val</text>
   </g>
   <g id="text_18">
    <text style="font: 10px 'Arial'; text-anchor: middle" x="150.255562" y="110.249131" transform="rotate(-0 150.255562 110.249131)">Glu73Lys</text>
   </g>
   <g id="patch_7">
    <path d="M 179.321922 81.703448 
Q 166.312615 87.004446 154.338685 91.883551 
" style="fill: none; opacity: 0.5; stroke: #808080; stroke-linecap: round"/>
    <path d="M 159.689465 92.294826 
L 154.338685 91.883551 
L 157.878174 87.849692 
" style="fill: none; opacity: 0.5; stroke: #808080; stroke-linecap: round"/>
   </g>
   <g id="text_19">
    <g id="patch_8">
     <path d="M 233.34701 41.811041 
L 295.339197 41.811041 
Q 298.339197 41.811041 298.339197 38.811041 
L 298.339197 19.053228 
Q 298.339197 16.053228 295.339197 16.053228 
L 233.34701 16.053228 
Q 230.34701 16.053228 230.34701 19.053228 
L 230.34701 38.811041 
Q 230.34701 41.811041 233.34701 41.811041 
z
" style="fill: #ffffff; opacity: 0.4; stroke: #000000; stroke-linejoin: miter"/>
    </g>
    <!-- $r$ = -0.80 -->
    <g transform="translate(245.143104 26.211041)">
     <text>
      <tspan style="font: oblique 10px 'DejaVu Sans'" x="0" y="-0.8125">r</tspan>
      <tspan style="font: 10px 'Arial'" x="4.111328 6.889648 12.729492 15.507812 18.837891 24.399414 27.177734 32.739258" y="-0.8125"> = -0.80</tspan>
     </text>
    </g>
    <text style="font: 10px 'Arial'" transform="translate(233.34701 36.823541)">p = 3.162e-12</text>
   </g>
   <g id="legend_1">
    <g id="patch_9">
     <path d="M 51.605 232.320547 
L 104.1675 232.320547 
Q 106.1675 232.320547 106.1675 230.320547 
L 106.1675 172.910234 
Q 106.1675 170.910234 104.1675 170.910234 
L 51.605 170.910234 
Q 49.605 170.910234 49.605 172.910234 
L 49.605 230.320547 
Q 49.605 232.320547 51.605 232.320547 
z
" style="fill: #ffffff; opacity: 0.8; stroke: #cccccc; stroke-linejoin: miter"/>
    </g>
    <g id="text_20">
     <text style="font: 12px 'Arial'; text-anchor: start" x="58.65625" y="183.499609" transform="rotate(-0 58.65625 183.499609)">ClinVar</text>
    </g>
    <g id="line2d_19">
     <defs>
      <path id="m67b39cc945" d="M 0 3.535534 
C 0.937635 3.535534 1.836992 3.163008 2.5 2.5 
C 3.163008 1.836992 3.535534 0.937635 3.535534 0 
C 3.535534 -0.937635 3.163008 -1.836992 2.5 -2.5 
C 1.836992 -3.163008 0.937635 -3.535534 0 -3.535534 
C -0.937635 -3.535534 -1.836992 -3.163008 -2.5 -2.5 
C -3.163008 -1.836992 -3.535534 -0.937635 -3.535534 0 
C -3.535534 0.937635 -3.163008 1.836992 -2.5 2.5 
C -1.836992 3.163008 -0.937635 3.535534 0 3.535534 
z
" style="stroke: #ffffff; stroke-width: 0.565685"/>
     </defs>
     <g>
      <use xlink:href="#m67b39cc945" x="63.605" y="194.542422" style="fill: #ca7682; stroke: #ffffff; stroke-width: 0.565685"/>
     </g>
    </g>
    <g id="text_21">
     <text style="font: 10px 'Arial'; text-anchor: start" x="81.605" y="198.042422" transform="rotate(-0 81.605 198.042422)">PLP</text>
    </g>
    <g id="line2d_20">
     <defs>
      <path id="m4be3030c45" d="M 0 3.535534 
C 0.937635 3.535534 1.836992 3.163008 2.5 2.5 
C 3.163008 1.836992 3.535534 0.937635 3.535534 0 
C 3.535534 -0.937635 3.163008 -1.836992 2.5 -2.5 
C 1.836992 -3.163008 0.937635 -3.535534 0 -3.535534 
C -0.937635 -3.535534 -1.836992 -3.163008 -2.5 -2.5 
C -3.163008 -1.836992 -3.535534 -0.937635 -3.535534 0 
C -3.535534 0.937635 -3.163008 1.836992 -2.5 2.5 
C -1.836992 3.163008 -0.937635 3.535534 0 3.535534 
z
" style="stroke: #ffffff; stroke-width: 0.565685"/>
     </defs>
     <g>
      <use xlink:href="#m4be3030c45" x="63.605" y="208.687734" style="fill: #1d7aab; stroke: #ffffff; stroke-width: 0.565685"/>
     </g>
    </g>
    <g id="text_22">
     <text style="font: 10px 'Arial'; text-anchor: start" x="81.605" y="212.187734" transform="rotate(-0 81.605 212.187734)">BLB</text>
    </g>
    <g id="line2d_21">
     <defs>
      <path id="m2ef3180d61" d="M 0 3.535534 
C 0.937635 3.535534 1.836992 3.163008 2.5 2.5 
C 3.163008 1.836992 3.535534 0.937635 3.535534 0 
C 3.535534 -0.937635 3.163008 -1.836992 2.5 -2.5 
C 1.836992 -3.163008 0.937635 -3.535534 0 -3.535534 
C -0.937635 -3.535534 -1.836992 -3.163008 -2.5 -2.5 
C -3.163008 -1.836992 -3.535534 -0.937635 -3.535534 0 
C -3.535534 0.937635 -3.163008 1.836992 -2.5 2.5 
C -1.836992 3.163008 -0.937635 3.535534 0 3.535534 
z
" style="stroke: #ffffff; stroke-width: 0.565685"/>
     </defs>
     <g>
      <use xlink:href="#m2ef3180d61" x="63.605" y="222.833047" style="fill: #a0a0a0; stroke: #ffffff; stroke-width: 0.565685"/>
     </g>
    </g>
    <g id="text_23">
     <text style="font: 10px 'Arial'; text-anchor: start" x="81.605" y="226.333047" transform="rotate(-0 81.605 226.333047)">VUS</text>
    </g>
   </g>
  </g>
  <g id="axes_2">
   <g id="patch_10">
    <path d="M 367.74927 237.320547 
L 626.264686 237.320547 
L 626.264686 11.136797 
L 367.74927 11.136797 
L 367.74927 237.320547 
z
" style="fill: none"/>
   </g>
   <g id="PathCollection_2">
    <defs>
     <path id="C1_0_ea1526e662" d="M 0 3.535534 
C 0.937635 3.535534 1.836992 3.163008 2.5 2.5 
C 3.163008 1.836992 3.535534 0.937635 3.535534 -0 
C 3.535534 -0.937635 3.163008 -1.836992 2.5 -2.5 
C 1.836992 -3.163008 0.937635 -3.535534 0 -3.535534 
C -0.937635 -3.535534 -1.836992 -3.163008 -2.5 -2.5 
C -3.163008 -1.836992 -3.535534 -0.937635 -3.535534 0 
C -3.535534 0.937635 -3.163008 1.836992 -2.5 2.5 
C -1.836992 3.163008 -0.937635 3.535534 0 3.535534 
z
"/>
    </defs>
    <g clip-path="url(#p22c3bde30f)">
     <use xlink:href="#C1_0_ea1526e662" x="503.156679" y="85.288529" style="fill: #ca7682; stroke: #ffffff; stroke-width: 0.565685"/>
    </g>
    <g clip-path="url(#p22c3bde30f)">
     <use xlink:href="#C1_0_ea1526e662" x="563.445137" y="224.08273" style="fill: #ca7682; stroke: #ffffff; stroke-width: 0.565685"/>
    </g>
    <g clip-path="url(#p22c3bde30f)">
     <use xlink:href="#C1_0_ea1526e662" x="486.24096" y="104.64006" style="fill: #ca7682; stroke: #ffffff; stroke-width: 0.565685"/>
    </g>
    <g clip-path="url(#p22c3bde30f)">
     <use xlink:href="#C1_0_ea1526e662" x="494.090247" y="60.220846" style="fill: #ca7682; stroke: #ffffff; stroke-width: 0.565685"/>
    </g>
    <g clip-path="url(#p22c3bde30f)">
     <use xlink:href="#C1_0_ea1526e662" x="603.505717" y="216.381697" style="fill: #ca7682; stroke: #ffffff; stroke-width: 0.565685"/>
    </g>
    <g clip-path="url(#p22c3bde30f)">
     <use xlink:href="#C1_0_ea1526e662" x="490.677169" y="64.120903" style="fill: #ca7682; stroke: #ffffff; stroke-width: 0.565685"/>
    </g>
    <g clip-path="url(#p22c3bde30f)">
     <use xlink:href="#C1_0_ea1526e662" x="452.086752" y="85.171515" style="fill: #ca7682; stroke: #ffffff; stroke-width: 0.565685"/>
    </g>
    <g clip-path="url(#p22c3bde30f)">
     <use xlink:href="#C1_0_ea1526e662" x="440.066154" y="94.761717" style="fill: #ca7682; stroke: #ffffff; stroke-width: 0.565685"/>
    </g>
    <g clip-path="url(#p22c3bde30f)">
     <use xlink:href="#C1_0_ea1526e662" x="398.124961" y="98.779358" style="fill: #ca7682; stroke: #ffffff; stroke-width: 0.565685"/>
    </g>
    <g clip-path="url(#p22c3bde30f)">
     <use xlink:href="#C1_0_ea1526e662" x="591.595949" y="209.435273" style="fill: #ca7682; stroke: #ffffff; stroke-width: 0.565685"/>
    </g>
    <g clip-path="url(#p22c3bde30f)">
     <use xlink:href="#C1_0_ea1526e662" x="472.345167" y="64.414109" style="fill: #ca7682; stroke: #ffffff; stroke-width: 0.565685"/>
    </g>
    <g clip-path="url(#p22c3bde30f)">
     <use xlink:href="#C1_0_ea1526e662" x="546.933087" y="70.160647" style="fill: #ca7682; stroke: #ffffff; stroke-width: 0.565685"/>
    </g>
    <g clip-path="url(#p22c3bde30f)">
     <use xlink:href="#C1_0_ea1526e662" x="463.470928" y="59.24601" style="fill: #ca7682; stroke: #ffffff; stroke-width: 0.565685"/>
    </g>
    <g clip-path="url(#p22c3bde30f)">
     <use xlink:href="#C1_0_ea1526e662" x="527.490316" y="181.214411" style="fill: #ca7682; stroke: #ffffff; stroke-width: 0.565685"/>
    </g>
    <g clip-path="url(#p22c3bde30f)">
     <use xlink:href="#C1_0_ea1526e662" x="591.98089" y="222.184621" style="fill: #ca7682; stroke: #ffffff; stroke-width: 0.565685"/>
    </g>
    <g clip-path="url(#p22c3bde30f)">
     <use xlink:href="#C1_0_ea1526e662" x="612.422755" y="187.870087" style="fill: #ca7682; stroke: #ffffff; stroke-width: 0.565685"/>
    </g>
    <g clip-path="url(#p22c3bde30f)">
     <use xlink:href="#C1_0_ea1526e662" x="571.478466" y="219.185033" style="fill: #ca7682; stroke: #ffffff; stroke-width: 0.565685"/>
    </g>
    <g clip-path="url(#p22c3bde30f)">
     <use xlink:href="#C1_0_ea1526e662" x="474.593236" y="223.988476" style="fill: #ca7682; stroke: #ffffff; stroke-width: 0.565685"/>
    </g>
    <g clip-path="url(#p22c3bde30f)">
     <use xlink:href="#C1_0_ea1526e662" x="416.389946" y="61.357948" style="fill: #ca7682; stroke: #ffffff; stroke-width: 0.565685"/>
    </g>
    <g clip-path="url(#p22c3bde30f)">
     <use xlink:href="#C1_0_ea1526e662" x="408.851149" y="80.082064" style="fill: #ca7682; stroke: #ffffff; stroke-width: 0.565685"/>
    </g>
    <g clip-path="url(#p22c3bde30f)">
     <use xlink:href="#C1_0_ea1526e662" x="557.9196" y="220.626018" style="fill: #ca7682; stroke: #ffffff; stroke-width: 0.565685"/>
    </g>
    <g clip-path="url(#p22c3bde30f)">
     <use xlink:href="#C1_0_ea1526e662" x="611.339421" y="224.674515" style="fill: #ca7682; stroke: #ffffff; stroke-width: 0.565685"/>
    </g>
    <g clip-path="url(#p22c3bde30f)">
     <use xlink:href="#C1_0_ea1526e662" x="381.243249" y="70.237206" style="fill: #ca7682; stroke: #ffffff; stroke-width: 0.565685"/>
    </g>
    <g clip-path="url(#p22c3bde30f)">
     <use xlink:href="#C1_0_ea1526e662" x="564.165483" y="62.642268" style="fill: #ca7682; stroke: #ffffff; stroke-width: 0.565685"/>
    </g>
    <g clip-path="url(#p22c3bde30f)">
     <use xlink:href="#C1_0_ea1526e662" x="409.990388" y="55.517628" style="fill: #ca7682; stroke: #ffffff; stroke-width: 0.565685"/>
    </g>
    <g clip-path="url(#p22c3bde30f)">
     <use xlink:href="#C1_0_ea1526e662" x="601.974868" y="223.460743" style="fill: #ca7682; stroke: #ffffff; stroke-width: 0.565685"/>
    </g>
    <g clip-path="url(#p22c3bde30f)">
     <use xlink:href="#C1_0_ea1526e662" x="559.373609" y="211.788269" style="fill: #ca7682; stroke: #ffffff; stroke-width: 0.565685"/>
    </g>
    <g clip-path="url(#p22c3bde30f)">
     <use xlink:href="#C1_0_ea1526e662" x="564.951793" y="117.001981" style="fill: #a0a0a0; stroke: #ffffff; stroke-width: 0.565685"/>
    </g>
    <g clip-path="url(#p22c3bde30f)">
     <use xlink:href="#C1_0_ea1526e662" x="600.569257" y="224.328311" style="fill: #a0a0a0; stroke: #ffffff; stroke-width: 0.565685"/>
    </g>
    <g clip-path="url(#p22c3bde30f)">
     <use xlink:href="#C1_0_ea1526e662" x="603.003498" y="224.666125" style="fill: #a0a0a0; stroke: #ffffff; stroke-width: 0.565685"/>
    </g>
    <g clip-path="url(#p22c3bde30f)">
     <use xlink:href="#C1_0_ea1526e662" x="419.698877" y="58.186154" style="fill: #a0a0a0; stroke: #ffffff; stroke-width: 0.565685"/>
    </g>
    <g clip-path="url(#p22c3bde30f)">
     <use xlink:href="#C1_0_ea1526e662" x="458.179876" y="133.551064" style="fill: #a0a0a0; stroke: #ffffff; stroke-width: 0.565685"/>
    </g>
    <g clip-path="url(#p22c3bde30f)">
     <use xlink:href="#C1_0_ea1526e662" x="608.779235" y="223.745557" style="fill: #a0a0a0; stroke: #ffffff; stroke-width: 0.565685"/>
    </g>
    <g clip-path="url(#p22c3bde30f)">
     <use xlink:href="#C1_0_ea1526e662" x="493.118264" y="107.967146" style="fill: #a0a0a0; stroke: #ffffff; stroke-width: 0.565685"/>
    </g>
    <g clip-path="url(#p22c3bde30f)">
     <use xlink:href="#C1_0_ea1526e662" x="583.637117" y="223.649005" style="fill: #a0a0a0; stroke: #ffffff; stroke-width: 0.565685"/>
    </g>
    <g clip-path="url(#p22c3bde30f)">
     <use xlink:href="#C1_0_ea1526e662" x="407.622396" y="72.50494" style="fill: #1d7aab; stroke: #ffffff; stroke-width: 0.565685"/>
    </g>
    <g clip-path="url(#p22c3bde30f)">
     <use xlink:href="#C1_0_ea1526e662" x="446.288434" y="82.728666" style="fill: #1d7aab; stroke: #ffffff; stroke-width: 0.565685"/>
    </g>
    <g clip-path="url(#p22c3bde30f)">
     <use xlink:href="#C1_0_ea1526e662" x="486.352461" y="76.302526" style="fill: #1d7aab; stroke: #ffffff; stroke-width: 0.565685"/>
    </g>
    <g clip-path="url(#p22c3bde30f)">
     <use xlink:href="#C1_0_ea1526e662" x="467.296387" y="66.71221" style="fill: #1d7aab; stroke: #ffffff; stroke-width: 0.565685"/>
    </g>
    <g clip-path="url(#p22c3bde30f)">
     <use xlink:href="#C1_0_ea1526e662" x="418.469686" y="68.499249" style="fill: #1d7aab; stroke: #ffffff; stroke-width: 0.565685"/>
    </g>
    <g clip-path="url(#p22c3bde30f)">
     <use xlink:href="#C1_0_ea1526e662" x="463.910662" y="66.551097" style="fill: #a0a0a0; stroke: #ffffff; stroke-width: 0.565685"/>
    </g>
    <g clip-path="url(#p22c3bde30f)">
     <use xlink:href="#C1_0_ea1526e662" x="423.383362" y="69.554562" style="fill: #a0a0a0; stroke: #ffffff; stroke-width: 0.565685"/>
    </g>
    <g clip-path="url(#p22c3bde30f)">
     <use xlink:href="#C1_0_ea1526e662" x="382.086823" y="67.144413" style="fill: #a0a0a0; stroke: #ffffff; stroke-width: 0.565685"/>
    </g>
    <g clip-path="url(#p22c3bde30f)">
     <use xlink:href="#C1_0_ea1526e662" x="443.514943" y="70.633923" style="fill: #a0a0a0; stroke: #ffffff; stroke-width: 0.565685"/>
    </g>
    <g clip-path="url(#p22c3bde30f)">
     <use xlink:href="#C1_0_ea1526e662" x="454.878399" y="74.900548" style="fill: #a0a0a0; stroke: #ffffff; stroke-width: 0.565685"/>
    </g>
    <g clip-path="url(#p22c3bde30f)">
     <use xlink:href="#C1_0_ea1526e662" x="444.046874" y="61.820722" style="fill: #a0a0a0; stroke: #ffffff; stroke-width: 0.565685"/>
    </g>
    <g clip-path="url(#p22c3bde30f)">
     <use xlink:href="#C1_0_ea1526e662" x="523.149383" y="89.081163" style="fill: #a0a0a0; stroke: #ffffff; stroke-width: 0.565685"/>
    </g>
    <g clip-path="url(#p22c3bde30f)">
     <use xlink:href="#C1_0_ea1526e662" x="446.806739" y="135.922019" style="fill: #a0a0a0; stroke: #ffffff; stroke-width: 0.565685"/>
    </g>
    <g clip-path="url(#p22c3bde30f)">
     <use xlink:href="#C1_0_ea1526e662" x="539.96588" y="142.290919" style="fill: #a0a0a0; stroke: #ffffff; stroke-width: 0.565685"/>
    </g>
    <g clip-path="url(#p22c3bde30f)">
     <use xlink:href="#C1_0_ea1526e662" x="453.347703" y="227.937924" style="fill: #a0a0a0; stroke: #ffffff; stroke-width: 0.565685"/>
    </g>
   </g>
   <g id="PolyCollection_2">
    <path d="M 381.243249 23.52083 
L 381.243249 62.942507 
L 383.578395 64.420989 
L 385.913542 65.840856 
L 388.248688 67.411877 
L 390.583835 68.947129 
L 392.918981 70.35916 
L 395.254128 71.766929 
L 397.589274 73.184244 
L 399.924421 74.595181 
L 402.259567 76.108422 
L 404.594714 77.621662 
L 406.92986 79.134902 
L 409.265007 80.648142 
L 411.600153 82.193541 
L 413.9353 83.79431 
L 416.270447 85.182705 
L 418.605593 86.456509 
L 420.94074 87.942418 
L 423.275886 89.609085 
L 425.611033 90.783624 
L 427.946179 92.275146 
L 430.281326 93.767439 
L 432.616472 95.259732 
L 434.951619 96.752026 
L 437.286765 98.244319 
L 439.621912 99.736613 
L 441.957058 101.228906 
L 444.292205 102.723427 
L 446.627351 104.27558 
L 448.962498 105.732527 
L 451.297645 107.199809 
L 453.632791 108.706115 
L 455.967938 110.324039 
L 458.303084 111.937391 
L 460.638231 113.470161 
L 462.973377 115.061181 
L 465.308524 116.6522 
L 467.64367 118.24322 
L 469.978817 119.983079 
L 472.313963 121.496388 
L 474.64911 123.124539 
L 476.984256 124.81251 
L 479.319403 126.499125 
L 481.654549 128.177044 
L 483.989696 129.806328 
L 486.324842 131.434794 
L 488.659989 133.060496 
L 490.995136 134.754558 
L 493.330282 136.32146 
L 495.665429 137.943748 
L 498.000575 139.52234 
L 500.335722 141.199773 
L 502.670868 142.828518 
L 505.006015 144.60838 
L 507.341161 146.306932 
L 509.676308 148.002909 
L 512.011454 149.696033 
L 514.346601 151.54772 
L 516.681747 153.200405 
L 519.016894 154.89192 
L 521.35204 156.478301 
L 523.687187 158.327737 
L 526.022333 160.231078 
L 528.35748 161.812626 
L 530.692627 163.584825 
L 533.027773 165.386428 
L 535.36292 167.055784 
L 537.698066 168.724069 
L 540.033213 170.3519 
L 542.368359 172.038105 
L 544.703506 173.72431 
L 547.038652 175.53625 
L 549.373799 177.425125 
L 551.708945 179.218144 
L 554.044092 181.185601 
L 556.379238 183.163336 
L 558.714385 184.965713 
L 561.049531 186.842278 
L 563.384678 188.75711 
L 565.719825 190.671943 
L 568.054971 192.586775 
L 570.390118 194.549758 
L 572.725264 196.41644 
L 575.060411 198.263002 
L 577.395557 200.208661 
L 579.730704 202.029951 
L 582.06585 203.859302 
L 584.400997 205.688094 
L 586.736143 207.470206 
L 589.07129 209.214337 
L 591.406436 211.183134 
L 593.741583 213.015842 
L 596.076729 214.84855 
L 598.411876 216.681258 
L 600.747022 218.634074 
L 603.082169 220.660277 
L 605.417316 222.686481 
L 607.752462 224.712684 
L 610.087609 226.639197 
L 612.422755 228.553489 
L 612.422755 184.724135 
L 612.422755 184.724135 
L 610.087609 183.336003 
L 607.752462 181.958968 
L 605.417316 180.564592 
L 603.082169 179.217988 
L 600.747022 177.905935 
L 598.411876 176.457984 
L 596.076729 175.016865 
L 593.741583 173.628227 
L 591.406436 172.23959 
L 589.07129 170.851769 
L 586.736143 169.466159 
L 584.400997 168.08055 
L 582.06585 166.708405 
L 579.730704 165.378539 
L 577.395557 164.048673 
L 575.060411 162.718807 
L 572.725264 161.38894 
L 570.390118 159.981002 
L 568.054971 158.479165 
L 565.719825 157.065079 
L 563.384678 155.628354 
L 561.049531 154.235917 
L 558.714385 152.978868 
L 556.379238 151.435615 
L 554.044092 150.045315 
L 551.708945 148.644103 
L 549.373799 147.272491 
L 547.038652 145.661353 
L 544.703506 144.171187 
L 542.368359 142.690868 
L 540.033213 141.190611 
L 537.698066 139.69946 
L 535.36292 138.210208 
L 533.027773 136.731825 
L 530.692627 135.273536 
L 528.35748 133.738216 
L 526.022333 132.244239 
L 523.687187 130.755202 
L 521.35204 129.266165 
L 519.016894 127.840114 
L 516.681747 126.410774 
L 514.346601 124.993132 
L 512.011454 123.559637 
L 509.676308 121.807387 
L 507.341161 120.159959 
L 505.006015 118.456525 
L 502.670868 116.744758 
L 500.335722 115.047922 
L 498.000575 113.598178 
L 495.665429 111.956366 
L 493.330282 110.486489 
L 490.995136 108.997864 
L 488.659989 107.472088 
L 486.324842 105.802417 
L 483.989696 104.197305 
L 481.654549 102.514941 
L 479.319403 100.856474 
L 476.984256 99.04153 
L 474.64911 97.21988 
L 472.313963 95.259577 
L 469.978817 93.693382 
L 467.64367 91.991889 
L 465.308524 90.387562 
L 462.973377 88.783235 
L 460.638231 87.019485 
L 458.303084 84.97548 
L 455.967938 82.941792 
L 453.632791 81.174369 
L 451.297645 79.330385 
L 448.962498 77.74679 
L 446.627351 75.805616 
L 444.292205 74.023996 
L 441.957058 72.315436 
L 439.621912 70.543301 
L 437.286765 68.788959 
L 434.951619 66.943782 
L 432.616472 65.095519 
L 430.281326 63.354201 
L 427.946179 61.714969 
L 425.611033 59.899037 
L 423.275886 57.915146 
L 420.94074 55.826583 
L 418.605593 53.826159 
L 416.270447 51.90207 
L 413.9353 49.993096 
L 411.600153 48.162909 
L 409.265007 46.325739 
L 406.92986 44.450634 
L 404.594714 42.575529 
L 402.259567 40.700424 
L 399.924421 38.825319 
L 397.589274 36.950214 
L 395.254128 35.044293 
L 392.918981 33.123716 
L 390.583835 31.198655 
L 388.248688 29.130561 
L 385.913542 27.259466 
L 383.578395 25.441407 
L 381.243249 23.52083 
z
" clip-path="url(#p22c3bde30f)" style="fill-opacity: 0.15"/>
   </g>
   <g id="matplotlib.axis_3">
    <g id="xtick_7">
     <g id="line2d_22">
      <g>
       <use xlink:href="#m57a14c7628" x="367.74927" y="237.320547" style="stroke: #000000; stroke-width: 0.8"/>
      </g>
     </g>
     <g id="text_24">
      <text style="font: 11px 'Arial'; text-anchor: middle" x="367.74927" y="252.194141" transform="rotate(-0 367.74927 252.194141)">0.5</text>
     </g>
    </g>
    <g id="xtick_8">
     <g id="line2d_23">
      <g>
       <use xlink:href="#m57a14c7628" x="418.438567" y="237.320547" style="stroke: #000000; stroke-width: 0.8"/>
      </g>
     </g>
     <g id="text_25">
      <text style="font: 11px 'Arial'; text-anchor: middle" x="418.438567" y="252.194141" transform="rotate(-0 418.438567 252.194141)">0.6</text>
     </g>
    </g>
    <g id="xtick_9">
     <g id="line2d_24">
      <g>
       <use xlink:href="#m57a14c7628" x="469.127864" y="237.320547" style="stroke: #000000; stroke-width: 0.8"/>
      </g>
     </g>
     <g id="text_26">
      <text style="font: 11px 'Arial'; text-anchor: middle" x="469.127864" y="252.194141" transform="rotate(-0 469.127864 252.194141)">0.7</text>
     </g>
    </g>
    <g id="xtick_10">
     <g id="line2d_25">
      <g>
       <use xlink:href="#m57a14c7628" x="519.817162" y="237.320547" style="stroke: #000000; stroke-width: 0.8"/>
      </g>
     </g>
     <g id="text_27">
      <text style="font: 11px 'Arial'; text-anchor: middle" x="519.817162" y="252.194141" transform="rotate(-0 519.817162 252.194141)">0.8</text>
     </g>
    </g>
    <g id="xtick_11">
     <g id="line2d_26">
      <g>
       <use xlink:href="#m57a14c7628" x="570.506459" y="237.320547" style="stroke: #000000; stroke-width: 0.8"/>
      </g>
     </g>
     <g id="text_28">
      <text style="font: 11px 'Arial'; text-anchor: middle" x="570.506459" y="252.194141" transform="rotate(-0 570.506459 252.194141)">0.9</text>
     </g>
    </g>
    <g id="xtick_12">
     <g id="line2d_27">
      <g>
       <use xlink:href="#m57a14c7628" x="621.195756" y="237.320547" style="stroke: #000000; stroke-width: 0.8"/>
      </g>
     </g>
     <g id="text_29">
      <text style="font: 11px 'Arial'; text-anchor: middle" x="621.195756" y="252.194141" transform="rotate(-0 621.195756 252.194141)">1.0</text>
     </g>
    </g>
    <g id="text_30">
     <text style="font: 12px 'Arial'; text-anchor: middle" x="497.006978" y="266.969766" transform="rotate(-0 497.006978 266.969766)">Imaging phenotype score</text>
    </g>
   </g>
   <g id="matplotlib.axis_4">
    <g id="ytick_9">
     <g id="line2d_28">
      <g>
       <use xlink:href="#ma6a8293849" x="367.74927" y="225.094398" style="stroke: #000000; stroke-width: 0.8"/>
      </g>
     </g>
     <g id="text_31">
      <text style="font: 11px 'Arial'; text-anchor: end" x="360.74927" y="229.031195" transform="rotate(-0 360.74927 229.031195)">0.0</text>
     </g>
    </g>
    <g id="ytick_10">
     <g id="line2d_29">
      <g>
       <use xlink:href="#ma6a8293849" x="367.74927" y="194.529027" style="stroke: #000000; stroke-width: 0.8"/>
      </g>
     </g>
     <g id="text_32">
      <text style="font: 11px 'Arial'; text-anchor: end" x="360.74927" y="198.465823" transform="rotate(-0 360.74927 198.465823)">0.2</text>
     </g>
    </g>
    <g id="ytick_11">
     <g id="line2d_30">
      <g>
       <use xlink:href="#ma6a8293849" x="367.74927" y="163.963655" style="stroke: #000000; stroke-width: 0.8"/>
      </g>
     </g>
     <g id="text_33">
      <text style="font: 11px 'Arial'; text-anchor: end" x="360.74927" y="167.900452" transform="rotate(-0 360.74927 167.900452)">0.4</text>
     </g>
    </g>
    <g id="ytick_12">
     <g id="line2d_31">
      <g>
       <use xlink:href="#ma6a8293849" x="367.74927" y="133.398283" style="stroke: #000000; stroke-width: 0.8"/>
      </g>
     </g>
     <g id="text_34">
      <text style="font: 11px 'Arial'; text-anchor: end" x="360.74927" y="137.33508" transform="rotate(-0 360.74927 137.33508)">0.6</text>
     </g>
    </g>
    <g id="ytick_13">
     <g id="line2d_32">
      <g>
       <use xlink:href="#ma6a8293849" x="367.74927" y="102.832912" style="stroke: #000000; stroke-width: 0.8"/>
      </g>
     </g>
     <g id="text_35">
      <text style="font: 11px 'Arial'; text-anchor: end" x="360.74927" y="106.769709" transform="rotate(-0 360.74927 106.769709)">0.8</text>
     </g>
    </g>
    <g id="ytick_14">
     <g id="line2d_33">
      <g>
       <use xlink:href="#ma6a8293849" x="367.74927" y="72.26754" style="stroke: #000000; stroke-width: 0.8"/>
      </g>
     </g>
     <g id="text_36">
      <text style="font: 11px 'Arial'; text-anchor: end" x="360.74927" y="76.204337" transform="rotate(-0 360.74927 76.204337)">1.0</text>
     </g>
    </g>
    <g id="ytick_15">
     <g id="line2d_34">
      <g>
       <use xlink:href="#ma6a8293849" x="367.74927" y="41.702168" style="stroke: #000000; stroke-width: 0.8"/>
      </g>
     </g>
     <g id="text_37">
      <text style="font: 11px 'Arial'; text-anchor: end" x="360.74927" y="45.638965" transform="rotate(-0 360.74927 45.638965)">1.2</text>
     </g>
    </g>
    <g id="ytick_16">
     <g id="line2d_35">
      <g>
       <use xlink:href="#ma6a8293849" x="367.74927" y="11.136797" style="stroke: #000000; stroke-width: 0.8"/>
      </g>
     </g>
     <g id="text_38">
      <text style="font: 11px 'Arial'; text-anchor: end" x="360.74927" y="15.073594" transform="rotate(-0 360.74927 15.073594)">1.4</text>
     </g>
    </g>
    <g id="text_39">
     <text style="font: 12px 'Arial'" transform="translate(325.92527 186.252734) rotate(-90)">Carboxylation-sensitive</text>
     <text style="font: 12px 'Arial'" transform="translate(338.933645 208.921484) rotate(-90)">FIX-specific carboxylation score</text>
    </g>
   </g>
   <g id="line2d_36"/>
   <g id="line2d_37"/>
   <g id="line2d_38"/>
   <g id="line2d_39">
    <path d="M 381.243249 43.546798 
L 383.578395 45.214752 
L 385.913542 46.882707 
L 388.248688 48.550661 
L 390.583835 50.218616 
L 392.918981 51.88657 
L 395.254128 53.554525 
L 397.589274 55.222479 
L 399.924421 56.890434 
L 402.259567 58.558388 
L 404.594714 60.226343 
L 406.92986 61.894297 
L 409.265007 63.562252 
L 411.600153 65.230206 
L 413.9353 66.898161 
L 416.270447 68.566115 
L 418.605593 70.23407 
L 420.94074 71.902024 
L 423.275886 73.569979 
L 425.611033 75.237933 
L 427.946179 76.905888 
L 430.281326 78.573842 
L 432.616472 80.241797 
L 434.951619 81.909751 
L 437.286765 83.577706 
L 439.621912 85.24566 
L 441.957058 86.913615 
L 444.292205 88.581569 
L 446.627351 90.249524 
L 448.962498 91.917478 
L 451.297645 93.585433 
L 453.632791 95.253387 
L 455.967938 96.921342 
L 458.303084 98.589296 
L 460.638231 100.257251 
L 462.973377 101.925205 
L 465.308524 103.59316 
L 467.64367 105.261114 
L 469.978817 106.929069 
L 472.313963 108.597023 
L 474.64911 110.264978 
L 476.984256 111.932932 
L 479.319403 113.600887 
L 481.654549 115.268841 
L 483.989696 116.936796 
L 486.324842 118.60475 
L 488.659989 120.272705 
L 490.995136 121.940659 
L 493.330282 123.608614 
L 495.665429 125.276568 
L 498.000575 126.944523 
L 500.335722 128.612477 
L 502.670868 130.280432 
L 505.006015 131.948386 
L 507.341161 133.616341 
L 509.676308 135.284295 
L 512.011454 136.95225 
L 514.346601 138.620205 
L 516.681747 140.288159 
L 519.016894 141.956114 
L 521.35204 143.624068 
L 523.687187 145.292023 
L 526.022333 146.959977 
L 528.35748 148.627932 
L 530.692627 150.295886 
L 533.027773 151.963841 
L 535.36292 153.631795 
L 537.698066 155.29975 
L 540.033213 156.967704 
L 542.368359 158.635659 
L 544.703506 160.303613 
L 547.038652 161.971568 
L 549.373799 163.639522 
L 551.708945 165.307477 
L 554.044092 166.975431 
L 556.379238 168.643386 
L 558.714385 170.31134 
L 561.049531 171.979295 
L 563.384678 173.647249 
L 565.719825 175.315204 
L 568.054971 176.983158 
L 570.390118 178.651113 
L 572.725264 180.319067 
L 575.060411 181.987022 
L 577.395557 183.654976 
L 579.730704 185.322931 
L 582.06585 186.990885 
L 584.400997 188.65884 
L 586.736143 190.326794 
L 589.07129 191.994749 
L 591.406436 193.662703 
L 593.741583 195.330658 
L 596.076729 196.998612 
L 598.411876 198.666567 
L 600.747022 200.334521 
L 603.082169 202.002476 
L 605.417316 203.67043 
L 607.752462 205.338385 
L 610.087609 207.006339 
L 612.422755 208.674294 
" clip-path="url(#p22c3bde30f)" style="fill: none; stroke: #000000; stroke-width: 2.25; stroke-linecap: square"/>
   </g>
   <g id="patch_11">
    <path d="M 367.74927 237.320547 
L 367.74927 11.136797 
" style="fill: none; stroke: #000000; stroke-width: 0.8; stroke-linejoin: miter; stroke-linecap: square"/>
   </g>
   <g id="patch_12">
    <path d="M 626.264686 237.320547 
L 626.264686 11.136797 
" style="fill: none; stroke: #000000; stroke-width: 0.8; stroke-linejoin: miter; stroke-linecap: square"/>
   </g>
   <g id="patch_13">
    <path d="M 367.74927 237.320547 
L 626.264686 237.320547 
" style="fill: none; stroke: #000000; stroke-width: 0.8; stroke-linejoin: miter; stroke-linecap: square"/>
   </g>
   <g id="patch_14">
    <path d="M 367.74927 11.136797 
L 626.264686 11.136797 
" style="fill: none; stroke: #000000; stroke-width: 0.8; stroke-linejoin: miter; stroke-linecap: square"/>
   </g>
   <g id="text_40">
    <text style="font: 10px 'Arial'; text-anchor: middle" x="504.320518" y="216.321999" transform="rotate(-0 504.320518 216.321999)">Glu73Val</text>
   </g>
   <g id="text_41">
    <text style="font: 10px 'Arial'; text-anchor: middle" x="478.212343" y="235.534546" transform="rotate(-0 478.212343 235.534546)">Glu73Lys</text>
   </g>
   <g id="patch_15">
    <path d="M 502.429904 214.388833 
Q 489.457922 218.8623 477.542889 222.97127 
" style="fill: none; opacity: 0.5; stroke: #808080; stroke-linecap: round"/>
    <path d="M 482.863075 223.675275 
L 477.542889 222.97127 
L 481.298205 219.137525 
" style="fill: none; opacity: 0.5; stroke: #808080; stroke-linecap: round"/>
   </g>
   <g id="text_42">
    <g id="patch_16">
     <path d="M 556.49128 41.811041 
L 618.483467 41.811041 
Q 621.483467 41.811041 621.483467 38.811041 
L 621.483467 19.053228 
Q 621.483467 16.053228 618.483467 16.053228 
L 556.49128 16.053228 
Q 553.49128 16.053228 553.49128 19.053228 
L 553.49128 38.811041 
Q 553.49128 41.811041 556.49128 41.811041 
z
" style="fill: #ffffff; opacity: 0.4; stroke: #000000; stroke-linejoin: miter"/>
    </g>
    <!-- $r$ = -0.75 -->
    <g transform="translate(568.287373 26.211041)">
     <text>
      <tspan style="font: oblique 10px 'DejaVu Sans'" x="0" y="-0.8125">r</tspan>
      <tspan style="font: 10px 'Arial'" x="4.111328 6.889648 12.729492 15.507812 18.837891 24.399414 27.177734 32.739258" y="-0.8125"> = -0.75</tspan>
     </text>
    </g>
    <text style="font: 10px 'Arial'" transform="translate(556.49128 36.823541)">p = 3.783e-10</text>
   </g>
  </g>
 </g>
 <defs>
  <clipPath id="p3a363df24a">
   <rect x="44.605" y="11.136797" width="258.515416" height="226.18375"/>
  </clipPath>
  <clipPath id="p22c3bde30f">
   <rect x="367.74927" y="11.136797" width="258.515416" height="226.18375"/>
  </clipPath>
 </defs>
</svg>
